<?xml version="1.0" encoding="utf-8" standalone="no"?>
<!DOCTYPE svg PUBLIC "-//W3C//DTD SVG 1.1//EN"
  "http://www.w3.org/Graphics/SVG/1.1/DTD/svg11.dtd">
<svg xmlns:xlink="http://www.w3.org/1999/xlink" width="1142.151105pt" height="579.523125pt" viewBox="0 0 1142.151105 579.523125" xmlns="http://www.w3.org/2000/svg" version="1.1">
 <metadata>
  <rdf:RDF xmlns:dc="http://purl.org/dc/elements/1.1/" xmlns:cc="http://creativecommons.org/ns#" xmlns:rdf="http://www.w3.org/1999/02/22-rdf-syntax-ns#">
   <cc:Work>
    <dc:type rdf:resource="http://purl.org/dc/dcmitype/StillImage"/>
    <dc:date>2023-07-18T08:57:31.903872</dc:date>
    <dc:format>image/svg+xml</dc:format>
    <dc:creator>
     <cc:Agent>
      <dc:title>Matplotlib v3.7.1, https://matplotlib.org/</dc:title>
     </cc:Agent>
    </dc:creator>
   </cc:Work>
  </rdf:RDF>
 </metadata>
 <defs>
  <style type="text/css">*{stroke-linejoin: round; stroke-linecap: butt}</style>
 </defs>
 <g id="figure_1">
  <g id="patch_1">
   <path d="M 0 579.523125 
L 1142.151105 579.523125 
L 1142.151105 0 
L 0 0 
z
" style="fill: #ffffff"/>
  </g>
  <g id="axes_1">
   <g id="patch_2">
    <path d="M 81.718125 510.755625 
L 1060.792125 510.755625 
L 1060.792125 21.935625 
L 81.718125 21.935625 
z
" style="fill: #f5f5f5"/>
   </g>
   <g id="matplotlib.axis_1">
    <g id="xtick_1">
     <g id="text_1">
      <!-- 2019 -->
      <g style="fill: #262626" transform="translate(182.210681 542.499375) rotate(-90) scale(0.1 -0.1)">
       <defs>
        <path id="ArialMT-32" d="M 3222 541 
L 3222 0 
L 194 0 
Q 188 203 259 391 
Q 375 700 629 1000 
Q 884 1300 1366 1694 
Q 2113 2306 2375 2664 
Q 2638 3022 2638 3341 
Q 2638 3675 2398 3904 
Q 2159 4134 1775 4134 
Q 1369 4134 1125 3890 
Q 881 3647 878 3216 
L 300 3275 
Q 359 3922 746 4261 
Q 1134 4600 1788 4600 
Q 2447 4600 2831 4234 
Q 3216 3869 3216 3328 
Q 3216 3053 3103 2787 
Q 2991 2522 2730 2228 
Q 2469 1934 1863 1422 
Q 1356 997 1212 845 
Q 1069 694 975 541 
L 3222 541 
z
" transform="scale(0.015625)"/>
        <path id="ArialMT-30" d="M 266 2259 
Q 266 3072 433 3567 
Q 600 4063 929 4331 
Q 1259 4600 1759 4600 
Q 2128 4600 2406 4451 
Q 2684 4303 2865 4023 
Q 3047 3744 3150 3342 
Q 3253 2941 3253 2259 
Q 3253 1453 3087 958 
Q 2922 463 2592 192 
Q 2263 -78 1759 -78 
Q 1097 -78 719 397 
Q 266 969 266 2259 
z
M 844 2259 
Q 844 1131 1108 757 
Q 1372 384 1759 384 
Q 2147 384 2411 759 
Q 2675 1134 2675 2259 
Q 2675 3391 2411 3762 
Q 2147 4134 1753 4134 
Q 1366 4134 1134 3806 
Q 844 3388 844 2259 
z
" transform="scale(0.015625)"/>
        <path id="ArialMT-31" d="M 2384 0 
L 1822 0 
L 1822 3584 
Q 1619 3391 1289 3197 
Q 959 3003 697 2906 
L 697 3450 
Q 1169 3672 1522 3987 
Q 1875 4303 2022 4600 
L 2384 4600 
L 2384 0 
z
" transform="scale(0.015625)"/>
        <path id="ArialMT-39" d="M 350 1059 
L 891 1109 
Q 959 728 1153 556 
Q 1347 384 1650 384 
Q 1909 384 2104 503 
Q 2300 622 2425 820 
Q 2550 1019 2634 1356 
Q 2719 1694 2719 2044 
Q 2719 2081 2716 2156 
Q 2547 1888 2255 1720 
Q 1963 1553 1622 1553 
Q 1053 1553 659 1965 
Q 266 2378 266 3053 
Q 266 3750 677 4175 
Q 1088 4600 1706 4600 
Q 2153 4600 2523 4359 
Q 2894 4119 3086 3673 
Q 3278 3228 3278 2384 
Q 3278 1506 3087 986 
Q 2897 466 2520 194 
Q 2144 -78 1638 -78 
Q 1100 -78 759 220 
Q 419 519 350 1059 
z
M 2653 3081 
Q 2653 3566 2395 3850 
Q 2138 4134 1775 4134 
Q 1400 4134 1122 3828 
Q 844 3522 844 3034 
Q 844 2597 1108 2323 
Q 1372 2050 1759 2050 
Q 2150 2050 2401 2323 
Q 2653 2597 2653 3081 
z
" transform="scale(0.015625)"/>
       </defs>
       <use xlink:href="#ArialMT-32"/>
       <use xlink:href="#ArialMT-30" x="55.615234"/>
       <use xlink:href="#ArialMT-31" x="111.230469"/>
       <use xlink:href="#ArialMT-39" x="166.845703"/>
      </g>
     </g>
    </g>
    <g id="xtick_2">
     <g id="text_2">
      <!-- 2020 -->
      <g style="fill: #262626" transform="translate(378.025481 542.499375) rotate(-90) scale(0.1 -0.1)">
       <use xlink:href="#ArialMT-32"/>
       <use xlink:href="#ArialMT-30" x="55.615234"/>
       <use xlink:href="#ArialMT-32" x="111.230469"/>
       <use xlink:href="#ArialMT-30" x="166.845703"/>
      </g>
     </g>
    </g>
    <g id="xtick_3">
     <g id="text_3">
      <!-- 2021 -->
      <g style="fill: #262626" transform="translate(573.840281 542.499375) rotate(-90) scale(0.1 -0.1)">
       <use xlink:href="#ArialMT-32"/>
       <use xlink:href="#ArialMT-30" x="55.615234"/>
       <use xlink:href="#ArialMT-32" x="111.230469"/>
       <use xlink:href="#ArialMT-31" x="166.845703"/>
      </g>
     </g>
    </g>
    <g id="xtick_4">
     <g id="text_4">
      <!-- 2022 -->
      <g style="fill: #262626" transform="translate(769.655081 542.499375) rotate(-90) scale(0.1 -0.1)">
       <use xlink:href="#ArialMT-32"/>
       <use xlink:href="#ArialMT-30" x="55.615234"/>
       <use xlink:href="#ArialMT-32" x="111.230469"/>
       <use xlink:href="#ArialMT-32" x="166.845703"/>
      </g>
     </g>
    </g>
    <g id="xtick_5">
     <g id="text_5">
      <!-- 2023 -->
      <g style="fill: #262626" transform="translate(965.469881 542.499375) rotate(-90) scale(0.1 -0.1)">
       <defs>
        <path id="ArialMT-33" d="M 269 1209 
L 831 1284 
Q 928 806 1161 595 
Q 1394 384 1728 384 
Q 2125 384 2398 659 
Q 2672 934 2672 1341 
Q 2672 1728 2419 1979 
Q 2166 2231 1775 2231 
Q 1616 2231 1378 2169 
L 1441 2663 
Q 1497 2656 1531 2656 
Q 1891 2656 2178 2843 
Q 2466 3031 2466 3422 
Q 2466 3731 2256 3934 
Q 2047 4138 1716 4138 
Q 1388 4138 1169 3931 
Q 950 3725 888 3313 
L 325 3413 
Q 428 3978 793 4289 
Q 1159 4600 1703 4600 
Q 2078 4600 2393 4439 
Q 2709 4278 2876 4000 
Q 3044 3722 3044 3409 
Q 3044 3113 2884 2869 
Q 2725 2625 2413 2481 
Q 2819 2388 3044 2092 
Q 3269 1797 3269 1353 
Q 3269 753 2831 336 
Q 2394 -81 1725 -81 
Q 1122 -81 723 278 
Q 325 638 269 1209 
z
" transform="scale(0.015625)"/>
       </defs>
       <use xlink:href="#ArialMT-32"/>
       <use xlink:href="#ArialMT-30" x="55.615234"/>
       <use xlink:href="#ArialMT-32" x="111.230469"/>
       <use xlink:href="#ArialMT-33" x="166.845703"/>
      </g>
     </g>
    </g>
    <g id="text_6">
     <!-- Year -->
     <g style="fill: #262626" transform="translate(559.1295 555.08875) scale(0.12 -0.12)">
      <defs>
       <path id="ArialMT-59" d="M 1784 0 
L 1784 1941 
L 19 4581 
L 756 4581 
L 1659 3200 
Q 1909 2813 2125 2425 
Q 2331 2784 2625 3234 
L 3513 4581 
L 4219 4581 
L 2391 1941 
L 2391 0 
L 1784 0 
z
" transform="scale(0.015625)"/>
       <path id="ArialMT-65" d="M 2694 1069 
L 3275 997 
Q 3138 488 2766 206 
Q 2394 -75 1816 -75 
Q 1088 -75 661 373 
Q 234 822 234 1631 
Q 234 2469 665 2931 
Q 1097 3394 1784 3394 
Q 2450 3394 2872 2941 
Q 3294 2488 3294 1666 
Q 3294 1616 3291 1516 
L 816 1516 
Q 847 969 1125 678 
Q 1403 388 1819 388 
Q 2128 388 2347 550 
Q 2566 713 2694 1069 
z
M 847 1978 
L 2700 1978 
Q 2663 2397 2488 2606 
Q 2219 2931 1791 2931 
Q 1403 2931 1139 2672 
Q 875 2413 847 1978 
z
" transform="scale(0.015625)"/>
       <path id="ArialMT-61" d="M 2588 409 
Q 2275 144 1986 34 
Q 1697 -75 1366 -75 
Q 819 -75 525 192 
Q 231 459 231 875 
Q 231 1119 342 1320 
Q 453 1522 633 1644 
Q 813 1766 1038 1828 
Q 1203 1872 1538 1913 
Q 2219 1994 2541 2106 
Q 2544 2222 2544 2253 
Q 2544 2597 2384 2738 
Q 2169 2928 1744 2928 
Q 1347 2928 1158 2789 
Q 969 2650 878 2297 
L 328 2372 
Q 403 2725 575 2942 
Q 747 3159 1072 3276 
Q 1397 3394 1825 3394 
Q 2250 3394 2515 3294 
Q 2781 3194 2906 3042 
Q 3031 2891 3081 2659 
Q 3109 2516 3109 2141 
L 3109 1391 
Q 3109 606 3145 398 
Q 3181 191 3288 0 
L 2700 0 
Q 2613 175 2588 409 
z
M 2541 1666 
Q 2234 1541 1622 1453 
Q 1275 1403 1131 1340 
Q 988 1278 909 1158 
Q 831 1038 831 891 
Q 831 666 1001 516 
Q 1172 366 1500 366 
Q 1825 366 2078 508 
Q 2331 650 2450 897 
Q 2541 1088 2541 1459 
L 2541 1666 
z
" transform="scale(0.015625)"/>
       <path id="ArialMT-72" d="M 416 0 
L 416 3319 
L 922 3319 
L 922 2816 
Q 1116 3169 1280 3281 
Q 1444 3394 1641 3394 
Q 1925 3394 2219 3213 
L 2025 2691 
Q 1819 2813 1613 2813 
Q 1428 2813 1281 2702 
Q 1134 2591 1072 2394 
Q 978 2094 978 1738 
L 978 0 
L 416 0 
z
" transform="scale(0.015625)"/>
      </defs>
      <use xlink:href="#ArialMT-59"/>
      <use xlink:href="#ArialMT-65" x="57.574219"/>
      <use xlink:href="#ArialMT-61" x="113.189453"/>
      <use xlink:href="#ArialMT-72" x="168.804688"/>
     </g>
    </g>
   </g>
   <g id="matplotlib.axis_2">
    <g id="ytick_1">
     <g id="line2d_1">
      <path d="M 81.718125 510.755625 
L 1060.792125 510.755625 
" clip-path="url(#p5bbc3c4a08)" style="fill: none; stroke: #d3d3d3; stroke-linecap: round"/>
     </g>
     <g id="text_7">
      <!-- $0 -->
      <g style="fill: #262626" transform="translate(61.09625 514.334531) scale(0.1 -0.1)">
       <defs>
        <path id="ArialMT-24" d="M 1594 -659 
L 1594 -97 
Q 1172 -44 908 92 
Q 644 228 451 531 
Q 259 834 228 1272 
L 794 1378 
Q 859 925 1025 713 
Q 1263 413 1594 378 
L 1594 2169 
Q 1247 2234 884 2438 
Q 616 2588 470 2853 
Q 325 3119 325 3456 
Q 325 4056 750 4428 
Q 1034 4678 1594 4734 
L 1594 5003 
L 1925 5003 
L 1925 4734 
Q 2416 4688 2703 4447 
Q 3072 4141 3147 3606 
L 2566 3519 
Q 2516 3850 2358 4026 
Q 2200 4203 1925 4259 
L 1925 2638 
Q 2350 2531 2488 2472 
Q 2750 2356 2915 2190 
Q 3081 2025 3170 1797 
Q 3259 1569 3259 1303 
Q 3259 719 2887 328 
Q 2516 -63 1925 -91 
L 1925 -659 
L 1594 -659 
z
M 1594 4266 
Q 1266 4216 1077 4003 
Q 888 3791 888 3500 
Q 888 3213 1048 3019 
Q 1209 2825 1594 2709 
L 1594 4266 
z
M 1925 378 
Q 2253 419 2467 662 
Q 2681 906 2681 1266 
Q 2681 1572 2529 1758 
Q 2378 1944 1925 2091 
L 1925 378 
z
" transform="scale(0.015625)"/>
       </defs>
       <use xlink:href="#ArialMT-24"/>
       <use xlink:href="#ArialMT-30" x="55.615234"/>
      </g>
     </g>
    </g>
    <g id="ytick_2">
     <g id="line2d_2">
      <path d="M 81.718125 414.936604 
L 1060.792125 414.936604 
" clip-path="url(#p5bbc3c4a08)" style="fill: none; stroke: #d3d3d3; stroke-linecap: round"/>
     </g>
     <g id="text_8">
      <!-- $200,000 -->
      <g style="fill: #262626" transform="translate(30.513437 418.55926) scale(0.1 -0.1)">
       <defs>
        <path id="ArialMT-2c" d="M 569 0 
L 569 641 
L 1209 641 
L 1209 0 
Q 1209 -353 1084 -570 
Q 959 -788 688 -906 
L 531 -666 
Q 709 -588 793 -436 
Q 878 -284 888 0 
L 569 0 
z
" transform="scale(0.015625)"/>
       </defs>
       <use xlink:href="#ArialMT-24"/>
       <use xlink:href="#ArialMT-32" x="55.615234"/>
       <use xlink:href="#ArialMT-30" x="111.230469"/>
       <use xlink:href="#ArialMT-30" x="166.845703"/>
       <use xlink:href="#ArialMT-2c" x="222.460938"/>
       <use xlink:href="#ArialMT-30" x="250.244141"/>
       <use xlink:href="#ArialMT-30" x="305.859375"/>
       <use xlink:href="#ArialMT-30" x="361.474609"/>
      </g>
     </g>
    </g>
    <g id="ytick_3">
     <g id="line2d_3">
      <path d="M 81.718125 319.117582 
L 1060.792125 319.117582 
" clip-path="url(#p5bbc3c4a08)" style="fill: none; stroke: #d3d3d3; stroke-linecap: round"/>
     </g>
     <g id="text_9">
      <!-- $400,000 -->
      <g style="fill: #262626" transform="translate(30.513437 322.740239) scale(0.1 -0.1)">
       <defs>
        <path id="ArialMT-34" d="M 2069 0 
L 2069 1097 
L 81 1097 
L 81 1613 
L 2172 4581 
L 2631 4581 
L 2631 1613 
L 3250 1613 
L 3250 1097 
L 2631 1097 
L 2631 0 
L 2069 0 
z
M 2069 1613 
L 2069 3678 
L 634 1613 
L 2069 1613 
z
" transform="scale(0.015625)"/>
       </defs>
       <use xlink:href="#ArialMT-24"/>
       <use xlink:href="#ArialMT-34" x="55.615234"/>
       <use xlink:href="#ArialMT-30" x="111.230469"/>
       <use xlink:href="#ArialMT-30" x="166.845703"/>
       <use xlink:href="#ArialMT-2c" x="222.460938"/>
       <use xlink:href="#ArialMT-30" x="250.244141"/>
       <use xlink:href="#ArialMT-30" x="305.859375"/>
       <use xlink:href="#ArialMT-30" x="361.474609"/>
      </g>
     </g>
    </g>
    <g id="ytick_4">
     <g id="line2d_4">
      <path d="M 81.718125 223.298561 
L 1060.792125 223.298561 
" clip-path="url(#p5bbc3c4a08)" style="fill: none; stroke: #d3d3d3; stroke-linecap: round"/>
     </g>
     <g id="text_10">
      <!-- $600,000 -->
      <g style="fill: #262626" transform="translate(30.513437 226.921217) scale(0.1 -0.1)">
       <defs>
        <path id="ArialMT-36" d="M 3184 3459 
L 2625 3416 
Q 2550 3747 2413 3897 
Q 2184 4138 1850 4138 
Q 1581 4138 1378 3988 
Q 1113 3794 959 3422 
Q 806 3050 800 2363 
Q 1003 2672 1297 2822 
Q 1591 2972 1913 2972 
Q 2475 2972 2870 2558 
Q 3266 2144 3266 1488 
Q 3266 1056 3080 686 
Q 2894 316 2569 119 
Q 2244 -78 1831 -78 
Q 1128 -78 684 439 
Q 241 956 241 2144 
Q 241 3472 731 4075 
Q 1159 4600 1884 4600 
Q 2425 4600 2770 4297 
Q 3116 3994 3184 3459 
z
M 888 1484 
Q 888 1194 1011 928 
Q 1134 663 1356 523 
Q 1578 384 1822 384 
Q 2178 384 2434 671 
Q 2691 959 2691 1453 
Q 2691 1928 2437 2201 
Q 2184 2475 1800 2475 
Q 1419 2475 1153 2201 
Q 888 1928 888 1484 
z
" transform="scale(0.015625)"/>
       </defs>
       <use xlink:href="#ArialMT-24"/>
       <use xlink:href="#ArialMT-36" x="55.615234"/>
       <use xlink:href="#ArialMT-30" x="111.230469"/>
       <use xlink:href="#ArialMT-30" x="166.845703"/>
       <use xlink:href="#ArialMT-2c" x="222.460938"/>
       <use xlink:href="#ArialMT-30" x="250.244141"/>
       <use xlink:href="#ArialMT-30" x="305.859375"/>
       <use xlink:href="#ArialMT-30" x="361.474609"/>
      </g>
     </g>
    </g>
    <g id="ytick_5">
     <g id="line2d_5">
      <path d="M 81.718125 127.47954 
L 1060.792125 127.47954 
" clip-path="url(#p5bbc3c4a08)" style="fill: none; stroke: #d3d3d3; stroke-linecap: round"/>
     </g>
     <g id="text_11">
      <!-- $800,000 -->
      <g style="fill: #262626" transform="translate(30.513437 131.102196) scale(0.1 -0.1)">
       <defs>
        <path id="ArialMT-38" d="M 1131 2484 
Q 781 2613 612 2850 
Q 444 3088 444 3419 
Q 444 3919 803 4259 
Q 1163 4600 1759 4600 
Q 2359 4600 2725 4251 
Q 3091 3903 3091 3403 
Q 3091 3084 2923 2848 
Q 2756 2613 2416 2484 
Q 2838 2347 3058 2040 
Q 3278 1734 3278 1309 
Q 3278 722 2862 322 
Q 2447 -78 1769 -78 
Q 1091 -78 675 323 
Q 259 725 259 1325 
Q 259 1772 486 2073 
Q 713 2375 1131 2484 
z
M 1019 3438 
Q 1019 3113 1228 2906 
Q 1438 2700 1772 2700 
Q 2097 2700 2305 2904 
Q 2513 3109 2513 3406 
Q 2513 3716 2298 3927 
Q 2084 4138 1766 4138 
Q 1444 4138 1231 3931 
Q 1019 3725 1019 3438 
z
M 838 1322 
Q 838 1081 952 856 
Q 1066 631 1291 507 
Q 1516 384 1775 384 
Q 2178 384 2440 643 
Q 2703 903 2703 1303 
Q 2703 1709 2433 1975 
Q 2163 2241 1756 2241 
Q 1359 2241 1098 1978 
Q 838 1716 838 1322 
z
" transform="scale(0.015625)"/>
       </defs>
       <use xlink:href="#ArialMT-24"/>
       <use xlink:href="#ArialMT-38" x="55.615234"/>
       <use xlink:href="#ArialMT-30" x="111.230469"/>
       <use xlink:href="#ArialMT-30" x="166.845703"/>
       <use xlink:href="#ArialMT-2c" x="222.460938"/>
       <use xlink:href="#ArialMT-30" x="250.244141"/>
       <use xlink:href="#ArialMT-30" x="305.859375"/>
       <use xlink:href="#ArialMT-30" x="361.474609"/>
      </g>
     </g>
    </g>
    <g id="ytick_6">
     <g id="line2d_6">
      <path d="M 81.718125 31.660518 
L 1060.792125 31.660518 
" clip-path="url(#p5bbc3c4a08)" style="fill: none; stroke: #d3d3d3; stroke-linecap: round"/>
     </g>
     <g id="text_12">
      <!-- $1,000,000 -->
      <g style="fill: #262626" transform="translate(22.174375 35.283175) scale(0.1 -0.1)">
       <use xlink:href="#ArialMT-24"/>
       <use xlink:href="#ArialMT-31" x="55.615234"/>
       <use xlink:href="#ArialMT-2c" x="111.230469"/>
       <use xlink:href="#ArialMT-30" x="139.013672"/>
       <use xlink:href="#ArialMT-30" x="194.628906"/>
       <use xlink:href="#ArialMT-30" x="250.244141"/>
       <use xlink:href="#ArialMT-2c" x="305.859375"/>
       <use xlink:href="#ArialMT-30" x="333.642578"/>
       <use xlink:href="#ArialMT-30" x="389.257812"/>
       <use xlink:href="#ArialMT-30" x="444.873047"/>
      </g>
     </g>
    </g>
    <g id="text_13">
     <!-- NetSalesAmt -->
     <g style="fill: #262626" transform="translate(15.789375 301.3575) rotate(-90) scale(0.12 -0.12)">
      <defs>
       <path id="ArialMT-4e" d="M 488 0 
L 488 4581 
L 1109 4581 
L 3516 984 
L 3516 4581 
L 4097 4581 
L 4097 0 
L 3475 0 
L 1069 3600 
L 1069 0 
L 488 0 
z
" transform="scale(0.015625)"/>
       <path id="ArialMT-74" d="M 1650 503 
L 1731 6 
Q 1494 -44 1306 -44 
Q 1000 -44 831 53 
Q 663 150 594 308 
Q 525 466 525 972 
L 525 2881 
L 113 2881 
L 113 3319 
L 525 3319 
L 525 4141 
L 1084 4478 
L 1084 3319 
L 1650 3319 
L 1650 2881 
L 1084 2881 
L 1084 941 
Q 1084 700 1114 631 
Q 1144 563 1211 522 
Q 1278 481 1403 481 
Q 1497 481 1650 503 
z
" transform="scale(0.015625)"/>
       <path id="ArialMT-53" d="M 288 1472 
L 859 1522 
Q 900 1178 1048 958 
Q 1197 738 1509 602 
Q 1822 466 2213 466 
Q 2559 466 2825 569 
Q 3091 672 3220 851 
Q 3350 1031 3350 1244 
Q 3350 1459 3225 1620 
Q 3100 1781 2813 1891 
Q 2628 1963 1997 2114 
Q 1366 2266 1113 2400 
Q 784 2572 623 2826 
Q 463 3081 463 3397 
Q 463 3744 659 4045 
Q 856 4347 1234 4503 
Q 1613 4659 2075 4659 
Q 2584 4659 2973 4495 
Q 3363 4331 3572 4012 
Q 3781 3694 3797 3291 
L 3216 3247 
Q 3169 3681 2898 3903 
Q 2628 4125 2100 4125 
Q 1550 4125 1298 3923 
Q 1047 3722 1047 3438 
Q 1047 3191 1225 3031 
Q 1400 2872 2139 2705 
Q 2878 2538 3153 2413 
Q 3553 2228 3743 1945 
Q 3934 1663 3934 1294 
Q 3934 928 3725 604 
Q 3516 281 3123 101 
Q 2731 -78 2241 -78 
Q 1619 -78 1198 103 
Q 778 284 539 648 
Q 300 1013 288 1472 
z
" transform="scale(0.015625)"/>
       <path id="ArialMT-6c" d="M 409 0 
L 409 4581 
L 972 4581 
L 972 0 
L 409 0 
z
" transform="scale(0.015625)"/>
       <path id="ArialMT-73" d="M 197 991 
L 753 1078 
Q 800 744 1014 566 
Q 1228 388 1613 388 
Q 2000 388 2187 545 
Q 2375 703 2375 916 
Q 2375 1106 2209 1216 
Q 2094 1291 1634 1406 
Q 1016 1563 777 1677 
Q 538 1791 414 1992 
Q 291 2194 291 2438 
Q 291 2659 392 2848 
Q 494 3038 669 3163 
Q 800 3259 1026 3326 
Q 1253 3394 1513 3394 
Q 1903 3394 2198 3281 
Q 2494 3169 2634 2976 
Q 2775 2784 2828 2463 
L 2278 2388 
Q 2241 2644 2061 2787 
Q 1881 2931 1553 2931 
Q 1166 2931 1000 2803 
Q 834 2675 834 2503 
Q 834 2394 903 2306 
Q 972 2216 1119 2156 
Q 1203 2125 1616 2013 
Q 2213 1853 2448 1751 
Q 2684 1650 2818 1456 
Q 2953 1263 2953 975 
Q 2953 694 2789 445 
Q 2625 197 2315 61 
Q 2006 -75 1616 -75 
Q 969 -75 630 194 
Q 291 463 197 991 
z
" transform="scale(0.015625)"/>
       <path id="ArialMT-41" d="M -9 0 
L 1750 4581 
L 2403 4581 
L 4278 0 
L 3588 0 
L 3053 1388 
L 1138 1388 
L 634 0 
L -9 0 
z
M 1313 1881 
L 2866 1881 
L 2388 3150 
Q 2169 3728 2063 4100 
Q 1975 3659 1816 3225 
L 1313 1881 
z
" transform="scale(0.015625)"/>
       <path id="ArialMT-6d" d="M 422 0 
L 422 3319 
L 925 3319 
L 925 2853 
Q 1081 3097 1340 3245 
Q 1600 3394 1931 3394 
Q 2300 3394 2536 3241 
Q 2772 3088 2869 2813 
Q 3263 3394 3894 3394 
Q 4388 3394 4653 3120 
Q 4919 2847 4919 2278 
L 4919 0 
L 4359 0 
L 4359 2091 
Q 4359 2428 4304 2576 
Q 4250 2725 4106 2815 
Q 3963 2906 3769 2906 
Q 3419 2906 3187 2673 
Q 2956 2441 2956 1928 
L 2956 0 
L 2394 0 
L 2394 2156 
Q 2394 2531 2256 2718 
Q 2119 2906 1806 2906 
Q 1569 2906 1367 2781 
Q 1166 2656 1075 2415 
Q 984 2175 984 1722 
L 984 0 
L 422 0 
z
" transform="scale(0.015625)"/>
      </defs>
      <use xlink:href="#ArialMT-4e"/>
      <use xlink:href="#ArialMT-65" x="72.216797"/>
      <use xlink:href="#ArialMT-74" x="127.832031"/>
      <use xlink:href="#ArialMT-53" x="155.615234"/>
      <use xlink:href="#ArialMT-61" x="222.314453"/>
      <use xlink:href="#ArialMT-6c" x="277.929688"/>
      <use xlink:href="#ArialMT-65" x="300.146484"/>
      <use xlink:href="#ArialMT-73" x="355.761719"/>
      <use xlink:href="#ArialMT-41" x="405.761719"/>
      <use xlink:href="#ArialMT-6d" x="472.460938"/>
      <use xlink:href="#ArialMT-74" x="555.761719"/>
     </g>
    </g>
   </g>
   <g id="patch_3">
    <path d="M 130.671825 510.755625 
L 228.579225 510.755625 
L 228.579225 455.60932 
L 130.671825 455.60932 
z
" clip-path="url(#p5bbc3c4a08)" style="fill: #ffb6c1"/>
   </g>
   <g id="patch_4">
    <path d="M 326.486625 510.755625 
L 424.394025 510.755625 
L 424.394025 455.855206 
L 326.486625 455.855206 
z
" clip-path="url(#p5bbc3c4a08)" style="fill: #ffb6c1"/>
   </g>
   <g id="patch_5">
    <path d="M 522.301425 510.755625 
L 620.208825 510.755625 
L 620.208825 429.38972 
L 522.301425 429.38972 
z
" clip-path="url(#p5bbc3c4a08)" style="fill: #ffb6c1"/>
   </g>
   <g id="patch_6">
    <path d="M 718.116225 510.755625 
L 816.023625 510.755625 
L 816.023625 443.660832 
L 718.116225 443.660832 
z
" clip-path="url(#p5bbc3c4a08)" style="fill: #ffb6c1"/>
   </g>
   <g id="patch_7">
    <path d="M 913.931025 510.755625 
L 1011.838425 510.755625 
L 1011.838425 480.011824 
L 913.931025 480.011824 
z
" clip-path="url(#p5bbc3c4a08)" style="fill: #ffb6c1"/>
   </g>
   <g id="patch_8">
    <path d="M 130.671825 455.60932 
L 228.579225 455.60932 
L 228.579225 418.881803 
L 130.671825 418.881803 
z
" clip-path="url(#p5bbc3c4a08)" style="fill: #d3d3d3"/>
   </g>
   <g id="patch_9">
    <path d="M 326.486625 455.855206 
L 424.394025 455.855206 
L 424.394025 419.386568 
L 326.486625 419.386568 
z
" clip-path="url(#p5bbc3c4a08)" style="fill: #d3d3d3"/>
   </g>
   <g id="patch_10">
    <path d="M 522.301425 429.38972 
L 620.208825 429.38972 
L 620.208825 382.636457 
L 522.301425 382.636457 
z
" clip-path="url(#p5bbc3c4a08)" style="fill: #d3d3d3"/>
   </g>
   <g id="patch_11">
    <path d="M 718.116225 443.660832 
L 816.023625 443.660832 
L 816.023625 400.882823 
L 718.116225 400.882823 
z
" clip-path="url(#p5bbc3c4a08)" style="fill: #d3d3d3"/>
   </g>
   <g id="patch_12">
    <path d="M 913.931025 480.011824 
L 1011.838425 480.011824 
L 1011.838425 460.423498 
L 913.931025 460.423498 
z
" clip-path="url(#p5bbc3c4a08)" style="fill: #d3d3d3"/>
   </g>
   <g id="patch_13">
    <path d="M 130.671825 418.881803 
L 228.579225 418.881803 
L 228.579225 379.550754 
L 130.671825 379.550754 
z
" clip-path="url(#p5bbc3c4a08)" style="fill: #e6e6fa"/>
   </g>
   <g id="patch_14">
    <path d="M 326.486625 419.386568 
L 424.394025 419.386568 
L 424.394025 382.398644 
L 326.486625 382.398644 
z
" clip-path="url(#p5bbc3c4a08)" style="fill: #e6e6fa"/>
   </g>
   <g id="patch_15">
    <path d="M 522.301425 382.636457 
L 620.208825 382.636457 
L 620.208825 336.335005 
L 522.301425 336.335005 
z
" clip-path="url(#p5bbc3c4a08)" style="fill: #e6e6fa"/>
   </g>
   <g id="patch_16">
    <path d="M 718.116225 400.882823 
L 816.023625 400.882823 
L 816.023625 356.855712 
L 718.116225 356.855712 
z
" clip-path="url(#p5bbc3c4a08)" style="fill: #e6e6fa"/>
   </g>
   <g id="patch_17">
    <path d="M 913.931025 460.423498 
L 1011.838425 460.423498 
L 1011.838425 440.06898 
L 913.931025 440.06898 
z
" clip-path="url(#p5bbc3c4a08)" style="fill: #e6e6fa"/>
   </g>
   <g id="patch_18">
    <path d="M 130.671825 379.550754 
L 228.579225 379.550754 
L 228.579225 342.82478 
L 130.671825 342.82478 
z
" clip-path="url(#p5bbc3c4a08)" style="fill: #98fb98"/>
   </g>
   <g id="patch_19">
    <path d="M 326.486625 382.398644 
L 424.394025 382.398644 
L 424.394025 338.138118 
L 326.486625 338.138118 
z
" clip-path="url(#p5bbc3c4a08)" style="fill: #98fb98"/>
   </g>
   <g id="patch_20">
    <path d="M 522.301425 336.335005 
L 620.208825 336.335005 
L 620.208825 283.546428 
L 522.301425 283.546428 
z
" clip-path="url(#p5bbc3c4a08)" style="fill: #98fb98"/>
   </g>
   <g id="patch_21">
    <path d="M 718.116225 356.855712 
L 816.023625 356.855712 
L 816.023625 311.811324 
L 718.116225 311.811324 
z
" clip-path="url(#p5bbc3c4a08)" style="fill: #98fb98"/>
   </g>
   <g id="patch_22">
    <path d="M 913.931025 440.06898 
L 1011.838425 440.06898 
L 1011.838425 416.369639 
L 913.931025 416.369639 
z
" clip-path="url(#p5bbc3c4a08)" style="fill: #98fb98"/>
   </g>
   <g id="patch_23">
    <path d="M 130.671825 342.82478 
L 228.579225 342.82478 
L 228.579225 298.658137 
L 130.671825 298.658137 
z
" clip-path="url(#p5bbc3c4a08)" style="fill: #dda0dd"/>
   </g>
   <g id="patch_24">
    <path d="M 326.486625 338.138118 
L 424.394025 338.138118 
L 424.394025 289.688222 
L 326.486625 289.688222 
z
" clip-path="url(#p5bbc3c4a08)" style="fill: #dda0dd"/>
   </g>
   <g id="patch_25">
    <path d="M 522.301425 283.546428 
L 620.208825 283.546428 
L 620.208825 224.853589 
L 522.301425 224.853589 
z
" clip-path="url(#p5bbc3c4a08)" style="fill: #dda0dd"/>
   </g>
   <g id="patch_26">
    <path d="M 718.116225 311.811324 
L 816.023625 311.811324 
L 816.023625 261.800713 
L 718.116225 261.800713 
z
" clip-path="url(#p5bbc3c4a08)" style="fill: #dda0dd"/>
   </g>
   <g id="patch_27">
    <path d="M 913.931025 416.369639 
L 1011.838425 416.369639 
L 1011.838425 394.423936 
L 913.931025 394.423936 
z
" clip-path="url(#p5bbc3c4a08)" style="fill: #dda0dd"/>
   </g>
   <g id="patch_28">
    <path d="M 130.671825 298.658137 
L 228.579225 298.658137 
L 228.579225 229.768745 
L 130.671825 229.768745 
z
" clip-path="url(#p5bbc3c4a08)" style="fill: #eee8aa"/>
   </g>
   <g id="patch_29">
    <path d="M 326.486625 289.688222 
L 424.394025 289.688222 
L 424.394025 225.263057 
L 326.486625 225.263057 
z
" clip-path="url(#p5bbc3c4a08)" style="fill: #eee8aa"/>
   </g>
   <g id="patch_30">
    <path d="M 522.301425 224.853589 
L 620.208825 224.853589 
L 620.208825 142.328934 
L 522.301425 142.328934 
z
" clip-path="url(#p5bbc3c4a08)" style="fill: #eee8aa"/>
   </g>
   <g id="patch_31">
    <path d="M 718.116225 261.800713 
L 816.023625 261.800713 
L 816.023625 188.9241 
L 718.116225 188.9241 
z
" clip-path="url(#p5bbc3c4a08)" style="fill: #eee8aa"/>
   </g>
   <g id="patch_32">
    <path d="M 913.931025 394.423936 
L 1011.838425 394.423936 
L 1011.838425 364.048089 
L 913.931025 364.048089 
z
" clip-path="url(#p5bbc3c4a08)" style="fill: #eee8aa"/>
   </g>
   <g id="patch_33">
    <path d="M 130.671825 229.768745 
L 228.579225 229.768745 
L 228.579225 157.473413 
L 130.671825 157.473413 
z
" clip-path="url(#p5bbc3c4a08)" style="fill: #87cefa"/>
   </g>
   <g id="patch_34">
    <path d="M 326.486625 225.263057 
L 424.394025 225.263057 
L 424.394025 155.567429 
L 326.486625 155.567429 
z
" clip-path="url(#p5bbc3c4a08)" style="fill: #87cefa"/>
   </g>
   <g id="patch_35">
    <path d="M 522.301425 142.328934 
L 620.208825 142.328934 
L 620.208825 45.212768 
L 522.301425 45.212768 
z
" clip-path="url(#p5bbc3c4a08)" style="fill: #87cefa"/>
   </g>
   <g id="patch_36">
    <path d="M 718.116225 188.9241 
L 816.023625 188.9241 
L 816.023625 104.472161 
L 718.116225 104.472161 
z
" clip-path="url(#p5bbc3c4a08)" style="fill: #87cefa"/>
   </g>
   <g id="patch_37">
    <path d="M 913.931025 364.048089 
L 1011.838425 364.048089 
L 1011.838425 329.261429 
L 913.931025 329.261429 
z
" clip-path="url(#p5bbc3c4a08)" style="fill: #87cefa"/>
   </g>
   <g id="patch_38">
    <path d="M 81.718125 510.755625 
L 81.718125 21.935625 
" style="fill: none; stroke: #d3d3d3; stroke-width: 1.25; stroke-linejoin: miter; stroke-linecap: square"/>
   </g>
   <g id="patch_39">
    <path d="M 1060.792125 510.755625 
L 1060.792125 21.935625 
" style="fill: none; stroke: #d3d3d3; stroke-width: 1.25; stroke-linejoin: miter; stroke-linecap: square"/>
   </g>
   <g id="patch_40">
    <path d="M 81.718125 510.755625 
L 1060.792125 510.755625 
" style="fill: none; stroke: #d3d3d3; stroke-width: 1.25; stroke-linejoin: miter; stroke-linecap: square"/>
   </g>
   <g id="patch_41">
    <path d="M 81.718125 21.935625 
L 1060.792125 21.935625 
" style="fill: none; stroke: #d3d3d3; stroke-width: 1.25; stroke-linejoin: miter; stroke-linecap: square"/>
   </g>
   <g id="text_14">
    <!--   16% -->
    <g transform="translate(171.954431 484.709191) scale(0.06 -0.06)">
     <defs>
      <path id="Helvetica-20" transform="scale(0.015625)"/>
      <path id="Helvetica-31" d="M 613 3169 
L 613 3600 
Q 1222 3659 1462 3798 
Q 1703 3938 1822 4456 
L 2266 4456 
L 2266 0 
L 1666 0 
L 1666 3169 
L 613 3169 
z
" transform="scale(0.015625)"/>
      <path id="Helvetica-36" d="M 1872 4494 
Q 2622 4494 2917 4105 
Q 3213 3716 3213 3303 
L 2656 3303 
Q 2606 3569 2497 3719 
Q 2294 4000 1881 4000 
Q 1409 4000 1131 3564 
Q 853 3128 822 2316 
Q 1016 2600 1309 2741 
Q 1578 2866 1909 2866 
Q 2472 2866 2890 2506 
Q 3309 2147 3309 1434 
Q 3309 825 2912 354 
Q 2516 -116 1781 -116 
Q 1153 -116 697 361 
Q 241 838 241 1966 
Q 241 2800 444 3381 
Q 834 4494 1872 4494 
z
M 1831 384 
Q 2275 384 2495 682 
Q 2716 981 2716 1388 
Q 2716 1731 2519 2042 
Q 2322 2353 1803 2353 
Q 1441 2353 1167 2112 
Q 894 1872 894 1388 
Q 894 963 1142 673 
Q 1391 384 1831 384 
z
" transform="scale(0.015625)"/>
      <path id="Helvetica-25" d="M 4363 2175 
Q 4813 2175 5131 1856 
Q 5450 1538 5450 1088 
Q 5450 638 5131 319 
Q 4813 0 4363 0 
Q 3909 0 3590 319 
Q 3272 638 3272 1088 
Q 3272 1538 3590 1856 
Q 3909 2175 4363 2175 
z
M 3909 4456 
L 4256 4456 
L 1753 -119 
L 1406 -119 
L 3909 4456 
z
M 1294 2606 
Q 1563 2606 1752 2795 
Q 1941 2984 1941 3250 
Q 1941 3516 1752 3705 
Q 1563 3894 1294 3894 
Q 1028 3894 839 3706 
Q 650 3519 650 3250 
Q 650 2984 839 2795 
Q 1028 2606 1294 2606 
z
M 1294 4341 
Q 1747 4341 2065 4020 
Q 2384 3700 2384 3250 
Q 2384 2800 2065 2481 
Q 1747 2163 1294 2163 
Q 844 2163 525 2481 
Q 206 2800 206 3250 
Q 206 3700 525 4020 
Q 844 4341 1294 4341 
z
M 4363 444 
Q 4628 444 4817 633 
Q 5006 822 5006 1088 
Q 5006 1353 4817 1542 
Q 4628 1731 4363 1731 
Q 4094 1731 3905 1542 
Q 3716 1353 3716 1088 
Q 3716 822 3905 633 
Q 4094 444 4363 444 
z
" transform="scale(0.015625)"/>
     </defs>
     <use xlink:href="#Helvetica-20"/>
     <use xlink:href="#Helvetica-20" x="27.783203"/>
     <use xlink:href="#Helvetica-31" x="55.566406"/>
     <use xlink:href="#Helvetica-36" x="111.181641"/>
     <use xlink:href="#Helvetica-25" x="166.796875"/>
    </g>
   </g>
   <g id="text_15">
    <!--   10% -->
    <g transform="translate(171.954431 438.772281) scale(0.06 -0.06)">
     <defs>
      <path id="Helvetica-30" d="M 1731 4475 
Q 2600 4475 2988 3759 
Q 3288 3206 3288 2244 
Q 3288 1331 3016 734 
Q 2622 -122 1728 -122 
Q 922 -122 528 578 
Q 200 1163 200 2147 
Q 200 2909 397 3456 
Q 766 4475 1731 4475 
z
M 1725 391 
Q 2163 391 2422 778 
Q 2681 1166 2681 2222 
Q 2681 2984 2493 3476 
Q 2306 3969 1766 3969 
Q 1269 3969 1039 3501 
Q 809 3034 809 2125 
Q 809 1441 956 1025 
Q 1181 391 1725 391 
z
" transform="scale(0.015625)"/>
     </defs>
     <use xlink:href="#Helvetica-20"/>
     <use xlink:href="#Helvetica-20" x="27.783203"/>
     <use xlink:href="#Helvetica-31" x="55.566406"/>
     <use xlink:href="#Helvetica-30" x="111.181641"/>
     <use xlink:href="#Helvetica-25" x="166.796875"/>
    </g>
   </g>
   <g id="text_16">
    <!--   11% -->
    <g transform="translate(171.954431 400.742997) scale(0.06 -0.06)">
     <use xlink:href="#Helvetica-20"/>
     <use xlink:href="#Helvetica-20" x="27.783203"/>
     <use xlink:href="#Helvetica-31" x="55.566406"/>
     <use xlink:href="#Helvetica-31" x="111.181641"/>
     <use xlink:href="#Helvetica-25" x="166.796875"/>
    </g>
   </g>
   <g id="text_17">
    <!--   10% -->
    <g transform="translate(171.954431 362.714486) scale(0.06 -0.06)">
     <use xlink:href="#Helvetica-20"/>
     <use xlink:href="#Helvetica-20" x="27.783203"/>
     <use xlink:href="#Helvetica-31" x="55.566406"/>
     <use xlink:href="#Helvetica-30" x="111.181641"/>
     <use xlink:href="#Helvetica-25" x="166.796875"/>
    </g>
   </g>
   <g id="text_18">
    <!--   13% -->
    <g transform="translate(171.954431 322.268177) scale(0.06 -0.06)">
     <defs>
      <path id="Helvetica-33" d="M 1663 -122 
Q 869 -122 511 314 
Q 153 750 153 1375 
L 741 1375 
Q 778 941 903 744 
Q 1122 391 1694 391 
Q 2138 391 2406 628 
Q 2675 866 2675 1241 
Q 2675 1703 2392 1887 
Q 2109 2072 1606 2072 
Q 1550 2072 1492 2070 
Q 1434 2069 1375 2066 
L 1375 2563 
Q 1463 2553 1522 2550 
Q 1581 2547 1650 2547 
Q 1966 2547 2169 2647 
Q 2525 2822 2525 3272 
Q 2525 3606 2287 3787 
Q 2050 3969 1734 3969 
Q 1172 3969 956 3594 
Q 838 3388 822 3006 
L 266 3006 
Q 266 3506 466 3856 
Q 809 4481 1675 4481 
Q 2359 4481 2734 4176 
Q 3109 3872 3109 3294 
Q 3109 2881 2888 2625 
Q 2750 2466 2531 2375 
Q 2884 2278 3082 2001 
Q 3281 1725 3281 1325 
Q 3281 684 2859 281 
Q 2438 -122 1663 -122 
z
" transform="scale(0.015625)"/>
     </defs>
     <use xlink:href="#Helvetica-20"/>
     <use xlink:href="#Helvetica-20" x="27.783203"/>
     <use xlink:href="#Helvetica-31" x="55.566406"/>
     <use xlink:href="#Helvetica-33" x="111.181641"/>
     <use xlink:href="#Helvetica-25" x="166.796875"/>
    </g>
   </g>
   <g id="text_19">
    <!--   19% -->
    <g transform="translate(171.954431 265.74016) scale(0.06 -0.06)">
     <defs>
      <path id="Helvetica-39" d="M 850 1081 
Q 875 616 1209 438 
Q 1381 344 1597 344 
Q 2000 344 2284 680 
Q 2569 1016 2688 2044 
Q 2500 1747 2223 1626 
Q 1947 1506 1628 1506 
Q 981 1506 604 1909 
Q 228 2313 228 2947 
Q 228 3556 600 4018 
Q 972 4481 1697 4481 
Q 2675 4481 3047 3600 
Q 3253 3116 3253 2388 
Q 3253 1566 3006 931 
Q 2597 -125 1619 -125 
Q 963 -125 622 219 
Q 281 563 281 1081 
L 850 1081 
z
M 1703 2000 
Q 2038 2000 2314 2220 
Q 2591 2441 2591 2991 
Q 2591 3484 2342 3726 
Q 2094 3969 1709 3969 
Q 1297 3969 1055 3692 
Q 813 3416 813 2953 
Q 813 2516 1025 2258 
Q 1238 2000 1703 2000 
z
" transform="scale(0.015625)"/>
     </defs>
     <use xlink:href="#Helvetica-20"/>
     <use xlink:href="#Helvetica-20" x="27.783203"/>
     <use xlink:href="#Helvetica-31" x="55.566406"/>
     <use xlink:href="#Helvetica-39" x="111.181641"/>
     <use xlink:href="#Helvetica-25" x="166.796875"/>
    </g>
   </g>
   <g id="text_20">
    <!--   20% -->
    <g transform="translate(171.954431 195.147798) scale(0.06 -0.06)">
     <defs>
      <path id="Helvetica-32" d="M 200 0 
Q 231 578 439 1006 
Q 647 1434 1250 1784 
L 1850 2131 
Q 2253 2366 2416 2531 
Q 2672 2791 2672 3125 
Q 2672 3516 2437 3745 
Q 2203 3975 1813 3975 
Q 1234 3975 1013 3538 
Q 894 3303 881 2888 
L 309 2888 
Q 319 3472 525 3841 
Q 891 4491 1816 4491 
Q 2584 4491 2939 4075 
Q 3294 3659 3294 3150 
Q 3294 2613 2916 2231 
Q 2697 2009 2131 1694 
L 1703 1456 
Q 1397 1288 1222 1134 
Q 909 863 828 531 
L 3272 531 
L 3272 0 
L 200 0 
z
" transform="scale(0.015625)"/>
     </defs>
     <use xlink:href="#Helvetica-20"/>
     <use xlink:href="#Helvetica-20" x="27.783203"/>
     <use xlink:href="#Helvetica-32" x="55.566406"/>
     <use xlink:href="#Helvetica-30" x="111.181641"/>
     <use xlink:href="#Helvetica-25" x="166.796875"/>
    </g>
   </g>
   <g id="text_21">
    <!--   15% -->
    <g transform="translate(367.769231 484.832134) scale(0.06 -0.06)">
     <defs>
      <path id="Helvetica-35" d="M 791 1141 
Q 847 659 1238 475 
Q 1438 381 1700 381 
Q 2200 381 2440 700 
Q 2681 1019 2681 1406 
Q 2681 1875 2395 2131 
Q 2109 2388 1709 2388 
Q 1419 2388 1211 2275 
Q 1003 2163 856 1963 
L 369 1991 
L 709 4400 
L 3034 4400 
L 3034 3856 
L 1131 3856 
L 941 2613 
Q 1097 2731 1238 2791 
Q 1488 2894 1816 2894 
Q 2431 2894 2859 2497 
Q 3288 2100 3288 1491 
Q 3288 856 2895 371 
Q 2503 -113 1644 -113 
Q 1097 -113 676 195 
Q 256 503 206 1141 
L 791 1141 
z
" transform="scale(0.015625)"/>
     </defs>
     <use xlink:href="#Helvetica-20"/>
     <use xlink:href="#Helvetica-20" x="27.783203"/>
     <use xlink:href="#Helvetica-31" x="55.566406"/>
     <use xlink:href="#Helvetica-35" x="111.181641"/>
     <use xlink:href="#Helvetica-25" x="166.796875"/>
    </g>
   </g>
   <g id="text_22">
    <!--   10% -->
    <g transform="translate(367.769231 439.147606) scale(0.06 -0.06)">
     <use xlink:href="#Helvetica-20"/>
     <use xlink:href="#Helvetica-20" x="27.783203"/>
     <use xlink:href="#Helvetica-31" x="55.566406"/>
     <use xlink:href="#Helvetica-30" x="111.181641"/>
     <use xlink:href="#Helvetica-25" x="166.796875"/>
    </g>
   </g>
   <g id="text_23">
    <!--   10% -->
    <g transform="translate(367.769231 402.419325) scale(0.06 -0.06)">
     <use xlink:href="#Helvetica-20"/>
     <use xlink:href="#Helvetica-20" x="27.783203"/>
     <use xlink:href="#Helvetica-31" x="55.566406"/>
     <use xlink:href="#Helvetica-30" x="111.181641"/>
     <use xlink:href="#Helvetica-25" x="166.796875"/>
    </g>
   </g>
   <g id="text_24">
    <!--   12% -->
    <g transform="translate(367.769231 361.7951) scale(0.06 -0.06)">
     <use xlink:href="#Helvetica-20"/>
     <use xlink:href="#Helvetica-20" x="27.783203"/>
     <use xlink:href="#Helvetica-31" x="55.566406"/>
     <use xlink:href="#Helvetica-32" x="111.181641"/>
     <use xlink:href="#Helvetica-25" x="166.796875"/>
    </g>
   </g>
   <g id="text_25">
    <!--   14% -->
    <g transform="translate(367.769231 315.439889) scale(0.06 -0.06)">
     <defs>
      <path id="Helvetica-34" d="M 2116 1584 
L 2116 3613 
L 681 1584 
L 2116 1584 
z
M 2125 0 
L 2125 1094 
L 163 1094 
L 163 1644 
L 2213 4488 
L 2688 4488 
L 2688 1584 
L 3347 1584 
L 3347 1094 
L 2688 1094 
L 2688 0 
L 2125 0 
z
" transform="scale(0.015625)"/>
     </defs>
     <use xlink:href="#Helvetica-20"/>
     <use xlink:href="#Helvetica-20" x="27.783203"/>
     <use xlink:href="#Helvetica-31" x="55.566406"/>
     <use xlink:href="#Helvetica-34" x="111.181641"/>
     <use xlink:href="#Helvetica-25" x="166.796875"/>
    </g>
   </g>
   <g id="text_26">
    <!--   18% -->
    <g transform="translate(367.769231 259.002358) scale(0.06 -0.06)">
     <defs>
      <path id="Helvetica-38" d="M 1741 2600 
Q 2113 2600 2322 2808 
Q 2531 3016 2531 3303 
Q 2531 3553 2331 3762 
Q 2131 3972 1722 3972 
Q 1316 3972 1134 3762 
Q 953 3553 953 3272 
Q 953 2956 1187 2778 
Q 1422 2600 1741 2600 
z
M 1775 384 
Q 2166 384 2423 595 
Q 2681 806 2681 1225 
Q 2681 1659 2415 1884 
Q 2150 2109 1734 2109 
Q 1331 2109 1076 1879 
Q 822 1650 822 1244 
Q 822 894 1055 639 
Q 1288 384 1775 384 
z
M 975 2384 
Q 741 2484 609 2619 
Q 363 2869 363 3269 
Q 363 3769 725 4128 
Q 1088 4488 1753 4488 
Q 2397 4488 2762 4148 
Q 3128 3809 3128 3356 
Q 3128 2938 2916 2678 
Q 2797 2531 2547 2391 
Q 2825 2263 2984 2097 
Q 3281 1784 3281 1284 
Q 3281 694 2884 283 
Q 2488 -128 1763 -128 
Q 1109 -128 657 226 
Q 206 581 206 1256 
Q 206 1653 400 1942 
Q 594 2231 975 2384 
z
" transform="scale(0.015625)"/>
     </defs>
     <use xlink:href="#Helvetica-20"/>
     <use xlink:href="#Helvetica-20" x="27.783203"/>
     <use xlink:href="#Helvetica-31" x="55.566406"/>
     <use xlink:href="#Helvetica-38" x="111.181641"/>
     <use xlink:href="#Helvetica-25" x="166.796875"/>
    </g>
   </g>
   <g id="text_27">
    <!--   20% -->
    <g transform="translate(367.769231 191.941962) scale(0.06 -0.06)">
     <use xlink:href="#Helvetica-20"/>
     <use xlink:href="#Helvetica-20" x="27.783203"/>
     <use xlink:href="#Helvetica-32" x="55.566406"/>
     <use xlink:href="#Helvetica-30" x="111.181641"/>
     <use xlink:href="#Helvetica-25" x="166.796875"/>
    </g>
   </g>
   <g id="text_28">
    <!--   17% -->
    <g transform="translate(563.584031 471.599391) scale(0.06 -0.06)">
     <defs>
      <path id="Helvetica-37" d="M 3347 4400 
L 3347 3909 
Q 3131 3700 2773 3181 
Q 2416 2663 2141 2063 
Q 1869 1478 1728 997 
Q 1638 688 1494 0 
L 872 0 
Q 1084 1281 1809 2550 
Q 2238 3294 2709 3834 
L 234 3834 
L 234 4400 
L 3347 4400 
z
" transform="scale(0.015625)"/>
     </defs>
     <use xlink:href="#Helvetica-20"/>
     <use xlink:href="#Helvetica-20" x="27.783203"/>
     <use xlink:href="#Helvetica-31" x="55.566406"/>
     <use xlink:href="#Helvetica-37" x="111.181641"/>
     <use xlink:href="#Helvetica-25" x="166.796875"/>
    </g>
   </g>
   <g id="text_29">
    <!--   10% -->
    <g transform="translate(563.584031 407.539807) scale(0.06 -0.06)">
     <use xlink:href="#Helvetica-20"/>
     <use xlink:href="#Helvetica-20" x="27.783203"/>
     <use xlink:href="#Helvetica-31" x="55.566406"/>
     <use xlink:href="#Helvetica-30" x="111.181641"/>
     <use xlink:href="#Helvetica-25" x="166.796875"/>
    </g>
   </g>
   <g id="text_30">
    <!--   10% -->
    <g transform="translate(563.584031 361.01245) scale(0.06 -0.06)">
     <use xlink:href="#Helvetica-20"/>
     <use xlink:href="#Helvetica-20" x="27.783203"/>
     <use xlink:href="#Helvetica-31" x="55.566406"/>
     <use xlink:href="#Helvetica-30" x="111.181641"/>
     <use xlink:href="#Helvetica-25" x="166.796875"/>
    </g>
   </g>
   <g id="text_31">
    <!--   11% -->
    <g transform="translate(563.584031 311.467436) scale(0.06 -0.06)">
     <use xlink:href="#Helvetica-20"/>
     <use xlink:href="#Helvetica-20" x="27.783203"/>
     <use xlink:href="#Helvetica-31" x="55.566406"/>
     <use xlink:href="#Helvetica-31" x="111.181641"/>
     <use xlink:href="#Helvetica-25" x="166.796875"/>
    </g>
   </g>
   <g id="text_32">
    <!--   13% -->
    <g transform="translate(563.584031 255.726727) scale(0.06 -0.06)">
     <use xlink:href="#Helvetica-20"/>
     <use xlink:href="#Helvetica-20" x="27.783203"/>
     <use xlink:href="#Helvetica-31" x="55.566406"/>
     <use xlink:href="#Helvetica-33" x="111.181641"/>
     <use xlink:href="#Helvetica-25" x="166.796875"/>
    </g>
   </g>
   <g id="text_33">
    <!--   18% -->
    <g transform="translate(563.584031 185.11798) scale(0.06 -0.06)">
     <use xlink:href="#Helvetica-20"/>
     <use xlink:href="#Helvetica-20" x="27.783203"/>
     <use xlink:href="#Helvetica-31" x="55.566406"/>
     <use xlink:href="#Helvetica-38" x="111.181641"/>
     <use xlink:href="#Helvetica-25" x="166.796875"/>
    </g>
   </g>
   <g id="text_34">
    <!--   21% -->
    <g transform="translate(563.584031 95.29757) scale(0.06 -0.06)">
     <use xlink:href="#Helvetica-20"/>
     <use xlink:href="#Helvetica-20" x="27.783203"/>
     <use xlink:href="#Helvetica-32" x="55.566406"/>
     <use xlink:href="#Helvetica-31" x="111.181641"/>
     <use xlink:href="#Helvetica-25" x="166.796875"/>
    </g>
   </g>
   <g id="text_35">
    <!--   17% -->
    <g transform="translate(759.398831 478.734947) scale(0.06 -0.06)">
     <use xlink:href="#Helvetica-20"/>
     <use xlink:href="#Helvetica-20" x="27.783203"/>
     <use xlink:href="#Helvetica-31" x="55.566406"/>
     <use xlink:href="#Helvetica-37" x="111.181641"/>
     <use xlink:href="#Helvetica-25" x="166.796875"/>
    </g>
   </g>
   <g id="text_36">
    <!--   11% -->
    <g transform="translate(759.398831 423.798546) scale(0.06 -0.06)">
     <use xlink:href="#Helvetica-20"/>
     <use xlink:href="#Helvetica-20" x="27.783203"/>
     <use xlink:href="#Helvetica-31" x="55.566406"/>
     <use xlink:href="#Helvetica-31" x="111.181641"/>
     <use xlink:href="#Helvetica-25" x="166.796875"/>
    </g>
   </g>
   <g id="text_37">
    <!--   11% -->
    <g transform="translate(759.398831 380.395986) scale(0.06 -0.06)">
     <use xlink:href="#Helvetica-20"/>
     <use xlink:href="#Helvetica-20" x="27.783203"/>
     <use xlink:href="#Helvetica-31" x="55.566406"/>
     <use xlink:href="#Helvetica-31" x="111.181641"/>
     <use xlink:href="#Helvetica-25" x="166.796875"/>
    </g>
   </g>
   <g id="text_38">
    <!--   11% -->
    <g transform="translate(759.398831 335.860237) scale(0.06 -0.06)">
     <use xlink:href="#Helvetica-20"/>
     <use xlink:href="#Helvetica-20" x="27.783203"/>
     <use xlink:href="#Helvetica-31" x="55.566406"/>
     <use xlink:href="#Helvetica-31" x="111.181641"/>
     <use xlink:href="#Helvetica-25" x="166.796875"/>
    </g>
   </g>
   <g id="text_39">
    <!--   12% -->
    <g transform="translate(759.398831 288.332738) scale(0.06 -0.06)">
     <use xlink:href="#Helvetica-20"/>
     <use xlink:href="#Helvetica-20" x="27.783203"/>
     <use xlink:href="#Helvetica-31" x="55.566406"/>
     <use xlink:href="#Helvetica-32" x="111.181641"/>
     <use xlink:href="#Helvetica-25" x="166.796875"/>
    </g>
   </g>
   <g id="text_40">
    <!--   18% -->
    <g transform="translate(759.398831 226.889126) scale(0.06 -0.06)">
     <use xlink:href="#Helvetica-20"/>
     <use xlink:href="#Helvetica-20" x="27.783203"/>
     <use xlink:href="#Helvetica-31" x="55.566406"/>
     <use xlink:href="#Helvetica-38" x="111.181641"/>
     <use xlink:href="#Helvetica-25" x="166.796875"/>
    </g>
   </g>
   <g id="text_41">
    <!--   21% -->
    <g transform="translate(759.398831 148.22485) scale(0.06 -0.06)">
     <use xlink:href="#Helvetica-20"/>
     <use xlink:href="#Helvetica-20" x="27.783203"/>
     <use xlink:href="#Helvetica-32" x="55.566406"/>
     <use xlink:href="#Helvetica-31" x="111.181641"/>
     <use xlink:href="#Helvetica-25" x="166.796875"/>
    </g>
   </g>
   <g id="text_42">
    <!--   17% -->
    <g transform="translate(955.213631 496.910443) scale(0.06 -0.06)">
     <use xlink:href="#Helvetica-20"/>
     <use xlink:href="#Helvetica-20" x="27.783203"/>
     <use xlink:href="#Helvetica-31" x="55.566406"/>
     <use xlink:href="#Helvetica-37" x="111.181641"/>
     <use xlink:href="#Helvetica-25" x="166.796875"/>
    </g>
   </g>
   <g id="text_43">
    <!--   11% -->
    <g transform="translate(955.213631 471.74438) scale(0.06 -0.06)">
     <use xlink:href="#Helvetica-20"/>
     <use xlink:href="#Helvetica-20" x="27.783203"/>
     <use xlink:href="#Helvetica-31" x="55.566406"/>
     <use xlink:href="#Helvetica-31" x="111.181641"/>
     <use xlink:href="#Helvetica-25" x="166.796875"/>
    </g>
   </g>
   <g id="text_44">
    <!--   11% -->
    <g transform="translate(955.213631 451.772958) scale(0.06 -0.06)">
     <use xlink:href="#Helvetica-20"/>
     <use xlink:href="#Helvetica-20" x="27.783203"/>
     <use xlink:href="#Helvetica-31" x="55.566406"/>
     <use xlink:href="#Helvetica-31" x="111.181641"/>
     <use xlink:href="#Helvetica-25" x="166.796875"/>
    </g>
   </g>
   <g id="text_45">
    <!--   13% -->
    <g transform="translate(955.213631 429.746028) scale(0.06 -0.06)">
     <use xlink:href="#Helvetica-20"/>
     <use xlink:href="#Helvetica-20" x="27.783203"/>
     <use xlink:href="#Helvetica-31" x="55.566406"/>
     <use xlink:href="#Helvetica-33" x="111.181641"/>
     <use xlink:href="#Helvetica-25" x="166.796875"/>
    </g>
   </g>
   <g id="text_46">
    <!--   12% -->
    <g transform="translate(955.213631 406.923506) scale(0.06 -0.06)">
     <use xlink:href="#Helvetica-20"/>
     <use xlink:href="#Helvetica-20" x="27.783203"/>
     <use xlink:href="#Helvetica-31" x="55.566406"/>
     <use xlink:href="#Helvetica-32" x="111.181641"/>
     <use xlink:href="#Helvetica-25" x="166.796875"/>
    </g>
   </g>
   <g id="text_47">
    <!--   17% -->
    <g transform="translate(955.213631 380.762731) scale(0.06 -0.06)">
     <use xlink:href="#Helvetica-20"/>
     <use xlink:href="#Helvetica-20" x="27.783203"/>
     <use xlink:href="#Helvetica-31" x="55.566406"/>
     <use xlink:href="#Helvetica-37" x="111.181641"/>
     <use xlink:href="#Helvetica-25" x="166.796875"/>
    </g>
   </g>
   <g id="text_48">
    <!--   19% -->
    <g transform="translate(955.213631 348.181478) scale(0.06 -0.06)">
     <use xlink:href="#Helvetica-20"/>
     <use xlink:href="#Helvetica-20" x="27.783203"/>
     <use xlink:href="#Helvetica-31" x="55.566406"/>
     <use xlink:href="#Helvetica-39" x="111.181641"/>
     <use xlink:href="#Helvetica-25" x="166.796875"/>
    </g>
   </g>
   <g id="text_49">
    <!-- $737K -->
    <g transform="translate(170.951306 157.471497) scale(0.06 -0.06)">
     <defs>
      <path id="Helvetica-24" d="M 1909 325 
Q 2444 350 2647 716 
Q 2753 903 2753 1150 
Q 2753 1541 2466 1744 
Q 2300 1863 1909 1969 
L 1909 325 
z
M 850 3341 
Q 850 3031 1054 2856 
Q 1259 2681 1606 2613 
L 1606 4081 
Q 1197 4066 1023 3831 
Q 850 3597 850 3341 
z
M 288 3303 
Q 288 3778 636 4159 
Q 984 4541 1613 4547 
L 1613 4963 
L 1909 4963 
L 1909 4553 
Q 2531 4509 2864 4186 
Q 3197 3863 3213 3331 
L 2666 3331 
Q 2644 3569 2538 3741 
Q 2341 4056 1909 4072 
L 1909 2553 
Q 2634 2350 2894 2172 
Q 3316 1878 3316 1303 
Q 3316 472 2775 122 
Q 2475 -72 1909 -134 
L 1909 -741 
L 1613 -741 
L 1613 -134 
Q 703 -75 378 509 
Q 200 825 200 1363 
L 753 1363 
Q 778 934 888 738 
Q 1081 384 1606 341 
L 1606 2044 
Q 931 2172 609 2472 
Q 288 2772 288 3303 
z
" transform="scale(0.015625)"/>
      <path id="Helvetica-4b" d="M 488 4591 
L 1094 4591 
L 1094 2353 
L 3331 4591 
L 4191 4591 
L 2281 2741 
L 4244 0 
L 3434 0 
L 1828 2303 
L 1094 1600 
L 1094 0 
L 488 0 
L 488 4591 
z
" transform="scale(0.015625)"/>
     </defs>
     <use xlink:href="#Helvetica-24"/>
     <use xlink:href="#Helvetica-37" x="55.615234"/>
     <use xlink:href="#Helvetica-33" x="111.230469"/>
     <use xlink:href="#Helvetica-37" x="166.845703"/>
     <use xlink:href="#Helvetica-4b" x="222.460938"/>
    </g>
   </g>
   <g id="text_50">
    <!-- $741K -->
    <g transform="translate(366.766106 155.565513) scale(0.06 -0.06)">
     <use xlink:href="#Helvetica-24"/>
     <use xlink:href="#Helvetica-37" x="55.615234"/>
     <use xlink:href="#Helvetica-34" x="111.230469"/>
     <use xlink:href="#Helvetica-31" x="166.845703"/>
     <use xlink:href="#Helvetica-4b" x="222.460938"/>
    </g>
   </g>
   <g id="text_51">
    <!-- $972K -->
    <g transform="translate(562.580906 45.210851) scale(0.06 -0.06)">
     <use xlink:href="#Helvetica-24"/>
     <use xlink:href="#Helvetica-39" x="55.615234"/>
     <use xlink:href="#Helvetica-37" x="111.230469"/>
     <use xlink:href="#Helvetica-32" x="166.845703"/>
     <use xlink:href="#Helvetica-4b" x="222.460938"/>
    </g>
   </g>
   <g id="text_52">
    <!-- $848K -->
    <g transform="translate(758.395706 104.470245) scale(0.06 -0.06)">
     <use xlink:href="#Helvetica-24"/>
     <use xlink:href="#Helvetica-38" x="55.615234"/>
     <use xlink:href="#Helvetica-34" x="111.230469"/>
     <use xlink:href="#Helvetica-38" x="166.845703"/>
     <use xlink:href="#Helvetica-4b" x="222.460938"/>
    </g>
   </g>
   <g id="text_53">
    <!-- $379K -->
    <g transform="translate(954.210506 329.259513) scale(0.06 -0.06)">
     <use xlink:href="#Helvetica-24"/>
     <use xlink:href="#Helvetica-33" x="55.615234"/>
     <use xlink:href="#Helvetica-37" x="111.230469"/>
     <use xlink:href="#Helvetica-39" x="166.845703"/>
     <use xlink:href="#Helvetica-4b" x="222.460938"/>
    </g>
   </g>
   <g id="text_54">
    <!-- $737K -->
    <g transform="translate(170.951306 157.471497) scale(0.06 -0.06)">
     <use xlink:href="#Helvetica-24"/>
     <use xlink:href="#Helvetica-37" x="55.615234"/>
     <use xlink:href="#Helvetica-33" x="111.230469"/>
     <use xlink:href="#Helvetica-37" x="166.845703"/>
     <use xlink:href="#Helvetica-4b" x="222.460938"/>
    </g>
   </g>
   <g id="text_55">
    <!-- $741K -->
    <g transform="translate(366.766106 155.565513) scale(0.06 -0.06)">
     <use xlink:href="#Helvetica-24"/>
     <use xlink:href="#Helvetica-37" x="55.615234"/>
     <use xlink:href="#Helvetica-34" x="111.230469"/>
     <use xlink:href="#Helvetica-31" x="166.845703"/>
     <use xlink:href="#Helvetica-4b" x="222.460938"/>
    </g>
   </g>
   <g id="text_56">
    <!-- $972K -->
    <g transform="translate(562.580906 45.210851) scale(0.06 -0.06)">
     <use xlink:href="#Helvetica-24"/>
     <use xlink:href="#Helvetica-39" x="55.615234"/>
     <use xlink:href="#Helvetica-37" x="111.230469"/>
     <use xlink:href="#Helvetica-32" x="166.845703"/>
     <use xlink:href="#Helvetica-4b" x="222.460938"/>
    </g>
   </g>
   <g id="text_57">
    <!-- $848K -->
    <g transform="translate(758.395706 104.470245) scale(0.06 -0.06)">
     <use xlink:href="#Helvetica-24"/>
     <use xlink:href="#Helvetica-38" x="55.615234"/>
     <use xlink:href="#Helvetica-34" x="111.230469"/>
     <use xlink:href="#Helvetica-38" x="166.845703"/>
     <use xlink:href="#Helvetica-4b" x="222.460938"/>
    </g>
   </g>
   <g id="text_58">
    <!-- $379K -->
    <g transform="translate(954.210506 329.259513) scale(0.06 -0.06)">
     <use xlink:href="#Helvetica-24"/>
     <use xlink:href="#Helvetica-33" x="55.615234"/>
     <use xlink:href="#Helvetica-37" x="111.230469"/>
     <use xlink:href="#Helvetica-39" x="166.845703"/>
     <use xlink:href="#Helvetica-4b" x="222.460938"/>
    </g>
   </g>
   <g id="text_59">
    <!-- $737K -->
    <g transform="translate(170.951306 157.471497) scale(0.06 -0.06)">
     <use xlink:href="#Helvetica-24"/>
     <use xlink:href="#Helvetica-37" x="55.615234"/>
     <use xlink:href="#Helvetica-33" x="111.230469"/>
     <use xlink:href="#Helvetica-37" x="166.845703"/>
     <use xlink:href="#Helvetica-4b" x="222.460938"/>
    </g>
   </g>
   <g id="text_60">
    <!-- $741K -->
    <g transform="translate(366.766106 155.565513) scale(0.06 -0.06)">
     <use xlink:href="#Helvetica-24"/>
     <use xlink:href="#Helvetica-37" x="55.615234"/>
     <use xlink:href="#Helvetica-34" x="111.230469"/>
     <use xlink:href="#Helvetica-31" x="166.845703"/>
     <use xlink:href="#Helvetica-4b" x="222.460938"/>
    </g>
   </g>
   <g id="text_61">
    <!-- $972K -->
    <g transform="translate(562.580906 45.210851) scale(0.06 -0.06)">
     <use xlink:href="#Helvetica-24"/>
     <use xlink:href="#Helvetica-39" x="55.615234"/>
     <use xlink:href="#Helvetica-37" x="111.230469"/>
     <use xlink:href="#Helvetica-32" x="166.845703"/>
     <use xlink:href="#Helvetica-4b" x="222.460938"/>
    </g>
   </g>
   <g id="text_62">
    <!-- $848K -->
    <g transform="translate(758.395706 104.470245) scale(0.06 -0.06)">
     <use xlink:href="#Helvetica-24"/>
     <use xlink:href="#Helvetica-38" x="55.615234"/>
     <use xlink:href="#Helvetica-34" x="111.230469"/>
     <use xlink:href="#Helvetica-38" x="166.845703"/>
     <use xlink:href="#Helvetica-4b" x="222.460938"/>
    </g>
   </g>
   <g id="text_63">
    <!-- $379K -->
    <g transform="translate(954.210506 329.259513) scale(0.06 -0.06)">
     <use xlink:href="#Helvetica-24"/>
     <use xlink:href="#Helvetica-33" x="55.615234"/>
     <use xlink:href="#Helvetica-37" x="111.230469"/>
     <use xlink:href="#Helvetica-39" x="166.845703"/>
     <use xlink:href="#Helvetica-4b" x="222.460938"/>
    </g>
   </g>
   <g id="text_64">
    <!-- $737K -->
    <g transform="translate(170.951306 157.471497) scale(0.06 -0.06)">
     <use xlink:href="#Helvetica-24"/>
     <use xlink:href="#Helvetica-37" x="55.615234"/>
     <use xlink:href="#Helvetica-33" x="111.230469"/>
     <use xlink:href="#Helvetica-37" x="166.845703"/>
     <use xlink:href="#Helvetica-4b" x="222.460938"/>
    </g>
   </g>
   <g id="text_65">
    <!-- $741K -->
    <g transform="translate(366.766106 155.565513) scale(0.06 -0.06)">
     <use xlink:href="#Helvetica-24"/>
     <use xlink:href="#Helvetica-37" x="55.615234"/>
     <use xlink:href="#Helvetica-34" x="111.230469"/>
     <use xlink:href="#Helvetica-31" x="166.845703"/>
     <use xlink:href="#Helvetica-4b" x="222.460938"/>
    </g>
   </g>
   <g id="text_66">
    <!-- $972K -->
    <g transform="translate(562.580906 45.210851) scale(0.06 -0.06)">
     <use xlink:href="#Helvetica-24"/>
     <use xlink:href="#Helvetica-39" x="55.615234"/>
     <use xlink:href="#Helvetica-37" x="111.230469"/>
     <use xlink:href="#Helvetica-32" x="166.845703"/>
     <use xlink:href="#Helvetica-4b" x="222.460938"/>
    </g>
   </g>
   <g id="text_67">
    <!-- $848K -->
    <g transform="translate(758.395706 104.470245) scale(0.06 -0.06)">
     <use xlink:href="#Helvetica-24"/>
     <use xlink:href="#Helvetica-38" x="55.615234"/>
     <use xlink:href="#Helvetica-34" x="111.230469"/>
     <use xlink:href="#Helvetica-38" x="166.845703"/>
     <use xlink:href="#Helvetica-4b" x="222.460938"/>
    </g>
   </g>
   <g id="text_68">
    <!-- $379K -->
    <g transform="translate(954.210506 329.259513) scale(0.06 -0.06)">
     <use xlink:href="#Helvetica-24"/>
     <use xlink:href="#Helvetica-33" x="55.615234"/>
     <use xlink:href="#Helvetica-37" x="111.230469"/>
     <use xlink:href="#Helvetica-39" x="166.845703"/>
     <use xlink:href="#Helvetica-4b" x="222.460938"/>
    </g>
   </g>
   <g id="text_69">
    <!-- $737K -->
    <g transform="translate(170.951306 157.471497) scale(0.06 -0.06)">
     <use xlink:href="#Helvetica-24"/>
     <use xlink:href="#Helvetica-37" x="55.615234"/>
     <use xlink:href="#Helvetica-33" x="111.230469"/>
     <use xlink:href="#Helvetica-37" x="166.845703"/>
     <use xlink:href="#Helvetica-4b" x="222.460938"/>
    </g>
   </g>
   <g id="text_70">
    <!-- $741K -->
    <g transform="translate(366.766106 155.565513) scale(0.06 -0.06)">
     <use xlink:href="#Helvetica-24"/>
     <use xlink:href="#Helvetica-37" x="55.615234"/>
     <use xlink:href="#Helvetica-34" x="111.230469"/>
     <use xlink:href="#Helvetica-31" x="166.845703"/>
     <use xlink:href="#Helvetica-4b" x="222.460938"/>
    </g>
   </g>
   <g id="text_71">
    <!-- $972K -->
    <g transform="translate(562.580906 45.210851) scale(0.06 -0.06)">
     <use xlink:href="#Helvetica-24"/>
     <use xlink:href="#Helvetica-39" x="55.615234"/>
     <use xlink:href="#Helvetica-37" x="111.230469"/>
     <use xlink:href="#Helvetica-32" x="166.845703"/>
     <use xlink:href="#Helvetica-4b" x="222.460938"/>
    </g>
   </g>
   <g id="text_72">
    <!-- $848K -->
    <g transform="translate(758.395706 104.470245) scale(0.06 -0.06)">
     <use xlink:href="#Helvetica-24"/>
     <use xlink:href="#Helvetica-38" x="55.615234"/>
     <use xlink:href="#Helvetica-34" x="111.230469"/>
     <use xlink:href="#Helvetica-38" x="166.845703"/>
     <use xlink:href="#Helvetica-4b" x="222.460938"/>
    </g>
   </g>
   <g id="text_73">
    <!-- $379K -->
    <g transform="translate(954.210506 329.259513) scale(0.06 -0.06)">
     <use xlink:href="#Helvetica-24"/>
     <use xlink:href="#Helvetica-33" x="55.615234"/>
     <use xlink:href="#Helvetica-37" x="111.230469"/>
     <use xlink:href="#Helvetica-39" x="166.845703"/>
     <use xlink:href="#Helvetica-4b" x="222.460938"/>
    </g>
   </g>
   <g id="text_74">
    <!-- $737K -->
    <g transform="translate(170.951306 157.471497) scale(0.06 -0.06)">
     <use xlink:href="#Helvetica-24"/>
     <use xlink:href="#Helvetica-37" x="55.615234"/>
     <use xlink:href="#Helvetica-33" x="111.230469"/>
     <use xlink:href="#Helvetica-37" x="166.845703"/>
     <use xlink:href="#Helvetica-4b" x="222.460938"/>
    </g>
   </g>
   <g id="text_75">
    <!-- $741K -->
    <g transform="translate(366.766106 155.565513) scale(0.06 -0.06)">
     <use xlink:href="#Helvetica-24"/>
     <use xlink:href="#Helvetica-37" x="55.615234"/>
     <use xlink:href="#Helvetica-34" x="111.230469"/>
     <use xlink:href="#Helvetica-31" x="166.845703"/>
     <use xlink:href="#Helvetica-4b" x="222.460938"/>
    </g>
   </g>
   <g id="text_76">
    <!-- $972K -->
    <g transform="translate(562.580906 45.210851) scale(0.06 -0.06)">
     <use xlink:href="#Helvetica-24"/>
     <use xlink:href="#Helvetica-39" x="55.615234"/>
     <use xlink:href="#Helvetica-37" x="111.230469"/>
     <use xlink:href="#Helvetica-32" x="166.845703"/>
     <use xlink:href="#Helvetica-4b" x="222.460938"/>
    </g>
   </g>
   <g id="text_77">
    <!-- $848K -->
    <g transform="translate(758.395706 104.470245) scale(0.06 -0.06)">
     <use xlink:href="#Helvetica-24"/>
     <use xlink:href="#Helvetica-38" x="55.615234"/>
     <use xlink:href="#Helvetica-34" x="111.230469"/>
     <use xlink:href="#Helvetica-38" x="166.845703"/>
     <use xlink:href="#Helvetica-4b" x="222.460938"/>
    </g>
   </g>
   <g id="text_78">
    <!-- $379K -->
    <g transform="translate(954.210506 329.259513) scale(0.06 -0.06)">
     <use xlink:href="#Helvetica-24"/>
     <use xlink:href="#Helvetica-33" x="55.615234"/>
     <use xlink:href="#Helvetica-37" x="111.230469"/>
     <use xlink:href="#Helvetica-39" x="166.845703"/>
     <use xlink:href="#Helvetica-4b" x="222.460938"/>
    </g>
   </g>
   <g id="text_79">
    <!-- $737K -->
    <g transform="translate(170.951306 157.471497) scale(0.06 -0.06)">
     <use xlink:href="#Helvetica-24"/>
     <use xlink:href="#Helvetica-37" x="55.615234"/>
     <use xlink:href="#Helvetica-33" x="111.230469"/>
     <use xlink:href="#Helvetica-37" x="166.845703"/>
     <use xlink:href="#Helvetica-4b" x="222.460938"/>
    </g>
   </g>
   <g id="text_80">
    <!-- $741K -->
    <g transform="translate(366.766106 155.565513) scale(0.06 -0.06)">
     <use xlink:href="#Helvetica-24"/>
     <use xlink:href="#Helvetica-37" x="55.615234"/>
     <use xlink:href="#Helvetica-34" x="111.230469"/>
     <use xlink:href="#Helvetica-31" x="166.845703"/>
     <use xlink:href="#Helvetica-4b" x="222.460938"/>
    </g>
   </g>
   <g id="text_81">
    <!-- $972K -->
    <g transform="translate(562.580906 45.210851) scale(0.06 -0.06)">
     <use xlink:href="#Helvetica-24"/>
     <use xlink:href="#Helvetica-39" x="55.615234"/>
     <use xlink:href="#Helvetica-37" x="111.230469"/>
     <use xlink:href="#Helvetica-32" x="166.845703"/>
     <use xlink:href="#Helvetica-4b" x="222.460938"/>
    </g>
   </g>
   <g id="text_82">
    <!-- $848K -->
    <g transform="translate(758.395706 104.470245) scale(0.06 -0.06)">
     <use xlink:href="#Helvetica-24"/>
     <use xlink:href="#Helvetica-38" x="55.615234"/>
     <use xlink:href="#Helvetica-34" x="111.230469"/>
     <use xlink:href="#Helvetica-38" x="166.845703"/>
     <use xlink:href="#Helvetica-4b" x="222.460938"/>
    </g>
   </g>
   <g id="text_83">
    <!-- $379K -->
    <g transform="translate(954.210506 329.259513) scale(0.06 -0.06)">
     <use xlink:href="#Helvetica-24"/>
     <use xlink:href="#Helvetica-33" x="55.615234"/>
     <use xlink:href="#Helvetica-37" x="111.230469"/>
     <use xlink:href="#Helvetica-39" x="166.845703"/>
     <use xlink:href="#Helvetica-4b" x="222.460938"/>
    </g>
   </g>
   <g id="text_84">
    <!-- Sales-Year-TF-WeekDay -->
    <g style="fill: #262626" transform="translate(504.897 15.935625) scale(0.12 -0.12)">
     <defs>
      <path id="ArialMT-2d" d="M 203 1375 
L 203 1941 
L 1931 1941 
L 1931 1375 
L 203 1375 
z
" transform="scale(0.015625)"/>
      <path id="ArialMT-54" d="M 1659 0 
L 1659 4041 
L 150 4041 
L 150 4581 
L 3781 4581 
L 3781 4041 
L 2266 4041 
L 2266 0 
L 1659 0 
z
" transform="scale(0.015625)"/>
      <path id="ArialMT-46" d="M 525 0 
L 525 4581 
L 3616 4581 
L 3616 4041 
L 1131 4041 
L 1131 2622 
L 3281 2622 
L 3281 2081 
L 1131 2081 
L 1131 0 
L 525 0 
z
" transform="scale(0.015625)"/>
      <path id="ArialMT-57" d="M 1294 0 
L 78 4581 
L 700 4581 
L 1397 1578 
Q 1509 1106 1591 641 
Q 1766 1375 1797 1488 
L 2669 4581 
L 3400 4581 
L 4056 2263 
Q 4303 1400 4413 641 
Q 4500 1075 4641 1638 
L 5359 4581 
L 5969 4581 
L 4713 0 
L 4128 0 
L 3163 3491 
Q 3041 3928 3019 4028 
Q 2947 3713 2884 3491 
L 1913 0 
L 1294 0 
z
" transform="scale(0.015625)"/>
      <path id="ArialMT-6b" d="M 425 0 
L 425 4581 
L 988 4581 
L 988 1969 
L 2319 3319 
L 3047 3319 
L 1778 2088 
L 3175 0 
L 2481 0 
L 1384 1697 
L 988 1316 
L 988 0 
L 425 0 
z
" transform="scale(0.015625)"/>
      <path id="ArialMT-44" d="M 494 0 
L 494 4581 
L 2072 4581 
Q 2606 4581 2888 4516 
Q 3281 4425 3559 4188 
Q 3922 3881 4101 3404 
Q 4281 2928 4281 2316 
Q 4281 1794 4159 1391 
Q 4038 988 3847 723 
Q 3656 459 3429 307 
Q 3203 156 2883 78 
Q 2563 0 2147 0 
L 494 0 
z
M 1100 541 
L 2078 541 
Q 2531 541 2789 625 
Q 3047 709 3200 863 
Q 3416 1078 3536 1442 
Q 3656 1806 3656 2325 
Q 3656 3044 3420 3430 
Q 3184 3816 2847 3947 
Q 2603 4041 2063 4041 
L 1100 4041 
L 1100 541 
z
" transform="scale(0.015625)"/>
      <path id="ArialMT-79" d="M 397 -1278 
L 334 -750 
Q 519 -800 656 -800 
Q 844 -800 956 -737 
Q 1069 -675 1141 -563 
Q 1194 -478 1313 -144 
Q 1328 -97 1363 -6 
L 103 3319 
L 709 3319 
L 1400 1397 
Q 1534 1031 1641 628 
Q 1738 1016 1872 1384 
L 2581 3319 
L 3144 3319 
L 1881 -56 
Q 1678 -603 1566 -809 
Q 1416 -1088 1222 -1217 
Q 1028 -1347 759 -1347 
Q 597 -1347 397 -1278 
z
" transform="scale(0.015625)"/>
     </defs>
     <use xlink:href="#ArialMT-53"/>
     <use xlink:href="#ArialMT-61" x="66.699219"/>
     <use xlink:href="#ArialMT-6c" x="122.314453"/>
     <use xlink:href="#ArialMT-65" x="144.53125"/>
     <use xlink:href="#ArialMT-73" x="200.146484"/>
     <use xlink:href="#ArialMT-2d" x="250.146484"/>
     <use xlink:href="#ArialMT-59" x="283.447266"/>
     <use xlink:href="#ArialMT-65" x="341.021484"/>
     <use xlink:href="#ArialMT-61" x="396.636719"/>
     <use xlink:href="#ArialMT-72" x="452.251953"/>
     <use xlink:href="#ArialMT-2d" x="485.552734"/>
     <use xlink:href="#ArialMT-54" x="518.853516"/>
     <use xlink:href="#ArialMT-46" x="579.9375"/>
     <use xlink:href="#ArialMT-2d" x="641.021484"/>
     <use xlink:href="#ArialMT-57" x="674.322266"/>
     <use xlink:href="#ArialMT-65" x="766.957031"/>
     <use xlink:href="#ArialMT-65" x="822.572266"/>
     <use xlink:href="#ArialMT-6b" x="878.1875"/>
     <use xlink:href="#ArialMT-44" x="928.1875"/>
     <use xlink:href="#ArialMT-61" x="1000.404297"/>
     <use xlink:href="#ArialMT-79" x="1056.019531"/>
    </g>
   </g>
   <g id="legend_1">
    <g id="patch_42">
     <path d="M 1081.973605 103.549375 
L 1133.351105 103.549375 
Q 1134.951105 103.549375 1134.951105 101.949375 
L 1134.951105 23.535625 
Q 1134.951105 21.935625 1133.351105 21.935625 
L 1081.973605 21.935625 
Q 1080.373605 21.935625 1080.373605 23.535625 
L 1080.373605 101.949375 
Q 1080.373605 103.549375 1081.973605 103.549375 
z
" style="fill: #eaeaf2; opacity: 0.8; stroke: #cccccc; stroke-linejoin: miter"/>
    </g>
    <g id="patch_43">
     <path d="M 1083.573605 30.861875 
L 1099.573605 30.861875 
L 1099.573605 25.261875 
L 1083.573605 25.261875 
z
" style="fill: #ffb6c1"/>
    </g>
    <g id="text_85">
     <!-- 0-SUN -->
     <g style="fill: #262626" transform="translate(1105.973605 30.861875) scale(0.08 -0.08)">
      <defs>
       <path id="ArialMT-55" d="M 3500 4581 
L 4106 4581 
L 4106 1934 
Q 4106 1244 3950 837 
Q 3794 431 3386 176 
Q 2978 -78 2316 -78 
Q 1672 -78 1262 144 
Q 853 366 678 786 
Q 503 1206 503 1934 
L 503 4581 
L 1109 4581 
L 1109 1938 
Q 1109 1341 1220 1058 
Q 1331 775 1601 622 
Q 1872 469 2263 469 
Q 2931 469 3215 772 
Q 3500 1075 3500 1938 
L 3500 4581 
z
" transform="scale(0.015625)"/>
      </defs>
      <use xlink:href="#ArialMT-30"/>
      <use xlink:href="#ArialMT-2d" x="55.615234"/>
      <use xlink:href="#ArialMT-53" x="88.916016"/>
      <use xlink:href="#ArialMT-55" x="155.615234"/>
      <use xlink:href="#ArialMT-4e" x="227.832031"/>
     </g>
    </g>
    <g id="patch_44">
     <path d="M 1083.573605 42.178125 
L 1099.573605 42.178125 
L 1099.573605 36.578125 
L 1083.573605 36.578125 
z
" style="fill: #d3d3d3"/>
    </g>
    <g id="text_86">
     <!-- 1-MON -->
     <g style="fill: #262626" transform="translate(1105.973605 42.178125) scale(0.08 -0.08)">
      <defs>
       <path id="ArialMT-4d" d="M 475 0 
L 475 4581 
L 1388 4581 
L 2472 1338 
Q 2622 884 2691 659 
Q 2769 909 2934 1394 
L 4031 4581 
L 4847 4581 
L 4847 0 
L 4263 0 
L 4263 3834 
L 2931 0 
L 2384 0 
L 1059 3900 
L 1059 0 
L 475 0 
z
" transform="scale(0.015625)"/>
       <path id="ArialMT-4f" d="M 309 2231 
Q 309 3372 921 4017 
Q 1534 4663 2503 4663 
Q 3138 4663 3647 4359 
Q 4156 4056 4423 3514 
Q 4691 2972 4691 2284 
Q 4691 1588 4409 1038 
Q 4128 488 3612 205 
Q 3097 -78 2500 -78 
Q 1853 -78 1343 234 
Q 834 547 571 1087 
Q 309 1628 309 2231 
z
M 934 2222 
Q 934 1394 1379 917 
Q 1825 441 2497 441 
Q 3181 441 3623 922 
Q 4066 1403 4066 2288 
Q 4066 2847 3877 3264 
Q 3688 3681 3323 3911 
Q 2959 4141 2506 4141 
Q 1863 4141 1398 3698 
Q 934 3256 934 2222 
z
" transform="scale(0.015625)"/>
      </defs>
      <use xlink:href="#ArialMT-31"/>
      <use xlink:href="#ArialMT-2d" x="55.615234"/>
      <use xlink:href="#ArialMT-4d" x="88.916016"/>
      <use xlink:href="#ArialMT-4f" x="172.216797"/>
      <use xlink:href="#ArialMT-4e" x="250"/>
     </g>
    </g>
    <g id="patch_45">
     <path d="M 1083.573605 53.494375 
L 1099.573605 53.494375 
L 1099.573605 47.894375 
L 1083.573605 47.894375 
z
" style="fill: #e6e6fa"/>
    </g>
    <g id="text_87">
     <!-- 2-TUE -->
     <g style="fill: #262626" transform="translate(1105.973605 53.494375) scale(0.08 -0.08)">
      <defs>
       <path id="ArialMT-45" d="M 506 0 
L 506 4581 
L 3819 4581 
L 3819 4041 
L 1113 4041 
L 1113 2638 
L 3647 2638 
L 3647 2100 
L 1113 2100 
L 1113 541 
L 3925 541 
L 3925 0 
L 506 0 
z
" transform="scale(0.015625)"/>
      </defs>
      <use xlink:href="#ArialMT-32"/>
      <use xlink:href="#ArialMT-2d" x="55.615234"/>
      <use xlink:href="#ArialMT-54" x="88.916016"/>
      <use xlink:href="#ArialMT-55" x="150"/>
      <use xlink:href="#ArialMT-45" x="222.216797"/>
     </g>
    </g>
    <g id="patch_46">
     <path d="M 1083.573605 64.810625 
L 1099.573605 64.810625 
L 1099.573605 59.210625 
L 1083.573605 59.210625 
z
" style="fill: #98fb98"/>
    </g>
    <g id="text_88">
     <!-- 3-WED -->
     <g style="fill: #262626" transform="translate(1105.973605 64.810625) scale(0.08 -0.08)">
      <use xlink:href="#ArialMT-33"/>
      <use xlink:href="#ArialMT-2d" x="55.615234"/>
      <use xlink:href="#ArialMT-57" x="88.916016"/>
      <use xlink:href="#ArialMT-45" x="183.300781"/>
      <use xlink:href="#ArialMT-44" x="250"/>
     </g>
    </g>
    <g id="patch_47">
     <path d="M 1083.573605 76.126875 
L 1099.573605 76.126875 
L 1099.573605 70.526875 
L 1083.573605 70.526875 
z
" style="fill: #dda0dd"/>
    </g>
    <g id="text_89">
     <!-- 4-THU -->
     <g style="fill: #262626" transform="translate(1105.973605 76.126875) scale(0.08 -0.08)">
      <defs>
       <path id="ArialMT-48" d="M 513 0 
L 513 4581 
L 1119 4581 
L 1119 2700 
L 3500 2700 
L 3500 4581 
L 4106 4581 
L 4106 0 
L 3500 0 
L 3500 2159 
L 1119 2159 
L 1119 0 
L 513 0 
z
" transform="scale(0.015625)"/>
      </defs>
      <use xlink:href="#ArialMT-34"/>
      <use xlink:href="#ArialMT-2d" x="55.615234"/>
      <use xlink:href="#ArialMT-54" x="88.916016"/>
      <use xlink:href="#ArialMT-48" x="150"/>
      <use xlink:href="#ArialMT-55" x="222.216797"/>
     </g>
    </g>
    <g id="patch_48">
     <path d="M 1083.573605 87.443125 
L 1099.573605 87.443125 
L 1099.573605 81.843125 
L 1083.573605 81.843125 
z
" style="fill: #eee8aa"/>
    </g>
    <g id="text_90">
     <!-- 5-FRI -->
     <g style="fill: #262626" transform="translate(1105.973605 87.443125) scale(0.08 -0.08)">
      <defs>
       <path id="ArialMT-35" d="M 266 1200 
L 856 1250 
Q 922 819 1161 601 
Q 1400 384 1738 384 
Q 2144 384 2425 690 
Q 2706 997 2706 1503 
Q 2706 1984 2436 2262 
Q 2166 2541 1728 2541 
Q 1456 2541 1237 2417 
Q 1019 2294 894 2097 
L 366 2166 
L 809 4519 
L 3088 4519 
L 3088 3981 
L 1259 3981 
L 1013 2750 
Q 1425 3038 1878 3038 
Q 2478 3038 2890 2622 
Q 3303 2206 3303 1553 
Q 3303 931 2941 478 
Q 2500 -78 1738 -78 
Q 1113 -78 717 272 
Q 322 622 266 1200 
z
" transform="scale(0.015625)"/>
       <path id="ArialMT-52" d="M 503 0 
L 503 4581 
L 2534 4581 
Q 3147 4581 3465 4457 
Q 3784 4334 3975 4021 
Q 4166 3709 4166 3331 
Q 4166 2844 3850 2509 
Q 3534 2175 2875 2084 
Q 3116 1969 3241 1856 
Q 3506 1613 3744 1247 
L 4541 0 
L 3778 0 
L 3172 953 
Q 2906 1366 2734 1584 
Q 2563 1803 2427 1890 
Q 2291 1978 2150 2013 
Q 2047 2034 1813 2034 
L 1109 2034 
L 1109 0 
L 503 0 
z
M 1109 2559 
L 2413 2559 
Q 2828 2559 3062 2645 
Q 3297 2731 3419 2920 
Q 3541 3109 3541 3331 
Q 3541 3656 3305 3865 
Q 3069 4075 2559 4075 
L 1109 4075 
L 1109 2559 
z
" transform="scale(0.015625)"/>
       <path id="ArialMT-49" d="M 597 0 
L 597 4581 
L 1203 4581 
L 1203 0 
L 597 0 
z
" transform="scale(0.015625)"/>
      </defs>
      <use xlink:href="#ArialMT-35"/>
      <use xlink:href="#ArialMT-2d" x="55.615234"/>
      <use xlink:href="#ArialMT-46" x="88.916016"/>
      <use xlink:href="#ArialMT-52" x="150"/>
      <use xlink:href="#ArialMT-49" x="222.216797"/>
     </g>
    </g>
    <g id="patch_49">
     <path d="M 1083.573605 98.759375 
L 1099.573605 98.759375 
L 1099.573605 93.159375 
L 1083.573605 93.159375 
z
" style="fill: #87cefa"/>
    </g>
    <g id="text_91">
     <!-- 6-SAT -->
     <g style="fill: #262626" transform="translate(1105.973605 98.759375) scale(0.08 -0.08)">
      <use xlink:href="#ArialMT-36"/>
      <use xlink:href="#ArialMT-2d" x="55.615234"/>
      <use xlink:href="#ArialMT-53" x="88.916016"/>
      <use xlink:href="#ArialMT-41" x="155.615234"/>
      <use xlink:href="#ArialMT-54" x="214.939453"/>
     </g>
    </g>
   </g>
  </g>
  <g id="text_92">
   <!-- Latest Data: MON Jul-17-2023 07:00 PM -->
   <g style="fill: #808080" transform="translate(74.878125 553.055625) scale(0.1 -0.1)">
    <defs>
     <path id="ArialMT-4c" d="M 469 0 
L 469 4581 
L 1075 4581 
L 1075 541 
L 3331 541 
L 3331 0 
L 469 0 
z
" transform="scale(0.015625)"/>
     <path id="ArialMT-20" transform="scale(0.015625)"/>
     <path id="ArialMT-3a" d="M 578 2678 
L 578 3319 
L 1219 3319 
L 1219 2678 
L 578 2678 
z
M 578 0 
L 578 641 
L 1219 641 
L 1219 0 
L 578 0 
z
" transform="scale(0.015625)"/>
     <path id="ArialMT-4a" d="M 184 1300 
L 731 1375 
Q 753 850 928 656 
Q 1103 463 1413 463 
Q 1641 463 1806 567 
Q 1972 672 2034 851 
Q 2097 1031 2097 1425 
L 2097 4581 
L 2703 4581 
L 2703 1459 
Q 2703 884 2564 568 
Q 2425 253 2123 87 
Q 1822 -78 1416 -78 
Q 813 -78 492 269 
Q 172 616 184 1300 
z
" transform="scale(0.015625)"/>
     <path id="ArialMT-75" d="M 2597 0 
L 2597 488 
Q 2209 -75 1544 -75 
Q 1250 -75 995 37 
Q 741 150 617 320 
Q 494 491 444 738 
Q 409 903 409 1263 
L 409 3319 
L 972 3319 
L 972 1478 
Q 972 1038 1006 884 
Q 1059 663 1231 536 
Q 1403 409 1656 409 
Q 1909 409 2131 539 
Q 2353 669 2445 892 
Q 2538 1116 2538 1541 
L 2538 3319 
L 3100 3319 
L 3100 0 
L 2597 0 
z
" transform="scale(0.015625)"/>
     <path id="ArialMT-37" d="M 303 3981 
L 303 4522 
L 3269 4522 
L 3269 4084 
Q 2831 3619 2401 2847 
Q 1972 2075 1738 1259 
Q 1569 684 1522 0 
L 944 0 
Q 953 541 1156 1306 
Q 1359 2072 1739 2783 
Q 2119 3494 2547 3981 
L 303 3981 
z
" transform="scale(0.015625)"/>
     <path id="ArialMT-50" d="M 494 0 
L 494 4581 
L 2222 4581 
Q 2678 4581 2919 4538 
Q 3256 4481 3484 4323 
Q 3713 4166 3852 3881 
Q 3991 3597 3991 3256 
Q 3991 2672 3619 2267 
Q 3247 1863 2275 1863 
L 1100 1863 
L 1100 0 
L 494 0 
z
M 1100 2403 
L 2284 2403 
Q 2872 2403 3119 2622 
Q 3366 2841 3366 3238 
Q 3366 3525 3220 3729 
Q 3075 3934 2838 4000 
Q 2684 4041 2272 4041 
L 1100 4041 
L 1100 2403 
z
" transform="scale(0.015625)"/>
    </defs>
    <use xlink:href="#ArialMT-4c"/>
    <use xlink:href="#ArialMT-61" x="55.615234"/>
    <use xlink:href="#ArialMT-74" x="111.230469"/>
    <use xlink:href="#ArialMT-65" x="139.013672"/>
    <use xlink:href="#ArialMT-73" x="194.628906"/>
    <use xlink:href="#ArialMT-74" x="244.628906"/>
    <use xlink:href="#ArialMT-20" x="272.412109"/>
    <use xlink:href="#ArialMT-44" x="300.195312"/>
    <use xlink:href="#ArialMT-61" x="372.412109"/>
    <use xlink:href="#ArialMT-74" x="428.027344"/>
    <use xlink:href="#ArialMT-61" x="455.810547"/>
    <use xlink:href="#ArialMT-3a" x="511.425781"/>
    <use xlink:href="#ArialMT-20" x="539.208984"/>
    <use xlink:href="#ArialMT-4d" x="566.992188"/>
    <use xlink:href="#ArialMT-4f" x="650.292969"/>
    <use xlink:href="#ArialMT-4e" x="728.076172"/>
    <use xlink:href="#ArialMT-20" x="800.292969"/>
    <use xlink:href="#ArialMT-4a" x="828.076172"/>
    <use xlink:href="#ArialMT-75" x="878.076172"/>
    <use xlink:href="#ArialMT-6c" x="933.691406"/>
    <use xlink:href="#ArialMT-2d" x="955.908203"/>
    <use xlink:href="#ArialMT-31" x="989.208984"/>
    <use xlink:href="#ArialMT-37" x="1044.824219"/>
    <use xlink:href="#ArialMT-2d" x="1100.439453"/>
    <use xlink:href="#ArialMT-32" x="1133.740234"/>
    <use xlink:href="#ArialMT-30" x="1189.355469"/>
    <use xlink:href="#ArialMT-32" x="1244.970703"/>
    <use xlink:href="#ArialMT-33" x="1300.585938"/>
    <use xlink:href="#ArialMT-20" x="1356.201172"/>
    <use xlink:href="#ArialMT-30" x="1383.984375"/>
    <use xlink:href="#ArialMT-37" x="1439.599609"/>
    <use xlink:href="#ArialMT-3a" x="1495.214844"/>
    <use xlink:href="#ArialMT-30" x="1522.998047"/>
    <use xlink:href="#ArialMT-30" x="1578.613281"/>
    <use xlink:href="#ArialMT-20" x="1634.228516"/>
    <use xlink:href="#ArialMT-50" x="1662.011719"/>
    <use xlink:href="#ArialMT-4d" x="1728.710938"/>
   </g>
  </g>
  <g id="text_93">
   <!-- Chart ID: 00003 -->
   <g style="fill: #808080" transform="translate(74.878125 570.335625) scale(0.1 -0.1)">
    <defs>
     <path id="ArialMT-43" d="M 3763 1606 
L 4369 1453 
Q 4178 706 3683 314 
Q 3188 -78 2472 -78 
Q 1731 -78 1267 223 
Q 803 525 561 1097 
Q 319 1669 319 2325 
Q 319 3041 592 3573 
Q 866 4106 1370 4382 
Q 1875 4659 2481 4659 
Q 3169 4659 3637 4309 
Q 4106 3959 4291 3325 
L 3694 3184 
Q 3534 3684 3231 3912 
Q 2928 4141 2469 4141 
Q 1941 4141 1586 3887 
Q 1231 3634 1087 3207 
Q 944 2781 944 2328 
Q 944 1744 1114 1308 
Q 1284 872 1643 656 
Q 2003 441 2422 441 
Q 2931 441 3284 734 
Q 3638 1028 3763 1606 
z
" transform="scale(0.015625)"/>
     <path id="ArialMT-68" d="M 422 0 
L 422 4581 
L 984 4581 
L 984 2938 
Q 1378 3394 1978 3394 
Q 2347 3394 2619 3248 
Q 2891 3103 3008 2847 
Q 3125 2591 3125 2103 
L 3125 0 
L 2563 0 
L 2563 2103 
Q 2563 2525 2380 2717 
Q 2197 2909 1863 2909 
Q 1613 2909 1392 2779 
Q 1172 2650 1078 2428 
Q 984 2206 984 1816 
L 984 0 
L 422 0 
z
" transform="scale(0.015625)"/>
    </defs>
    <use xlink:href="#ArialMT-43"/>
    <use xlink:href="#ArialMT-68" x="72.216797"/>
    <use xlink:href="#ArialMT-61" x="127.832031"/>
    <use xlink:href="#ArialMT-72" x="183.447266"/>
    <use xlink:href="#ArialMT-74" x="216.748047"/>
    <use xlink:href="#ArialMT-20" x="244.53125"/>
    <use xlink:href="#ArialMT-49" x="272.314453"/>
    <use xlink:href="#ArialMT-44" x="300.097656"/>
    <use xlink:href="#ArialMT-3a" x="372.314453"/>
    <use xlink:href="#ArialMT-20" x="400.097656"/>
    <use xlink:href="#ArialMT-30" x="427.880859"/>
    <use xlink:href="#ArialMT-30" x="483.496094"/>
    <use xlink:href="#ArialMT-30" x="539.111328"/>
    <use xlink:href="#ArialMT-30" x="594.726562"/>
    <use xlink:href="#ArialMT-33" x="650.341797"/>
   </g>
  </g>
 </g>
 <defs>
  <clipPath id="p5bbc3c4a08">
   <rect x="81.718125" y="21.935625" width="979.074" height="488.82"/>
  </clipPath>
 </defs>
</svg>
